<svg xmlns="http://www.w3.org/2000/svg" width="458" height="124" viewBox="0 0 458 124"><path fill-rule="evenodd" d="M204.144 1.146c-7.193 2.07-14.436 8.898-16.569 15.617-.698 2.2-.99 2.237-17.892 2.259-14.483.018-17.812.309-21.183 1.849-8.211 3.751-13.65 11.681-14.993 21.86C132.304 51.857 127.169 56 117.063 56c-6.03 0-6.038-.004-7.6-3.75C105.732 43.305 97.021 37.64 87 37.64c-10.029 0-18.754 5.597-22.713 14.571L62.615 56H49.027l-1.564-3.75C42.004 39.162 25.82 33.605 13.199 40.484c-20.38 11.108-15.651 41.078 7.206 45.669 10.522 2.113 22.436-4.068 26.802-13.903L49.094 68l6.703.002 6.703.003 2.804 5.367c7.521 14.395 26.154 17.621 38.111 6.599 2.344-2.16 5.078-5.737 6.075-7.949L111.304 68l6.098.004c10.334.006 14.452 3.729 16.571 14.983 1.463 7.771 2.81 10.565 7.205 14.946 4.469 4.454 10.322 7.018 16.08 7.045 4.612.021 4.807.145 6.362 4.03 3.265 8.161 13.835 14.992 23.197 14.992 7.777 0 16.548-5.362 20.911-12.784 3.632-6.18 3.896-16.496.58-22.716-4.689-8.795-12.676-13.7-22.308-13.7-9.613 0-17.859 5.147-22.021 13.744-1.879 3.882-2.565 4.456-5.318 4.452-4.31-.005-9.384-3.303-11.138-7.239-.798-1.791-1.937-5.788-2.532-8.882-.594-3.094-2.444-7.775-4.111-10.403l-3.03-4.778 1.92-2.597c3.368-4.555 4.977-8.457 5.705-13.836.795-5.866 3.843-11.103 7.555-12.982 1.659-.839 7.623-1.254 18.173-1.264L186.906 31l1.88 4.25c2.134 4.823 7.878 10.294 13.098 12.475 4.531 1.893 13.701 1.893 18.232 0 4.962-2.073 10.628-7.313 13.118-12.13 2.844-5.504 2.977-15.539.279-21.052-5.392-11.014-17.87-16.706-29.369-13.397m2.271 12.236c-4.851 2.174-7.415 6.161-7.415 11.53C199 32.52 203.837 37 212.05 37c8.864 0 14.336-10.96 9.354-18.736-3.201-4.998-9.877-7.172-14.989-4.882M361.459 24.88c-11.26 5.114-13.777 19.389-4.613 26.164l3.029 2.24-3.096 2.108c-4.266 2.905-6.723 6.486-7.427 10.826-1.92 11.835 6.14 20.279 20.487 21.463 14.357 1.185 24.539-5.219 25.749-16.195.671-6.085-2.367-12.828-7.236-16.059l-3.148-2.09 3.364-2.684c8.905-7.105 5.764-21.275-5.786-26.1-5.176-2.162-16.216-1.993-21.323.327m4.996 9.575c-5.386 5.385-1.626 13.745 6.182 13.745 2.866 0 4.353-.649 6.079-2.656C383.525 39.954 379.875 32 372.5 32c-2.479 0-4.351.76-6.045 2.455m-57.8 2.964c-2.114.776-4.843 2.349-6.064 3.496-2.898 2.722-3.395 2.634-3.775-.665-.299-2.603-.623-2.766-6.066-3.05l-5.75-.3v50.195l6.25-.297 6.25-.298.5-16.839.5-16.84 2.806-2.41c3.881-3.335 10.508-3.335 14.388 0l2.806 2.411.316 17.089.316 17.089H334V69.468c0-18.688-.72-22.396-5.298-27.299-4.783-5.123-13.438-7.173-20.047-4.75m124 0c-2.114.776-4.915 2.416-6.224 3.646-2.572 2.416-2.4 2.538-3.996-2.815-.239-.804-2.344-1.25-5.904-1.25H411v50h13V71.45C424 51.096 425.454 48 435.011 48c3.246 0 4.776.633 7.066 2.923L445 53.846V87h13V69.649c0-18.668-.679-22.418-4.886-26.988-5.165-5.611-13.577-7.766-20.459-5.242M17.143 52.533C8.094 60.147 13.07 74 24.854 74 32.523 74 37 69.19 37 60.95c0-3.386-.626-4.776-3.4-7.55-2.964-2.964-4.044-3.4-8.423-3.4-3.917 0-5.687.558-8.034 2.533m62 0c-4.06 3.416-5.655 8.385-4.154 12.934 2.801 8.486 13.61 11.544 20.149 5.701 2.681-2.395 3.242-3.702 3.638-8.478.447-5.392.309-5.805-3.054-9.168C92.628 50.428 91.59 50 87.177 50c-3.917 0-5.687.558-8.034 2.533M366.36 60.46c-5.577 3.907-5.075 13.085.886 16.167 4.071 2.105 10.616 1.262 12.994-1.675 1.089-1.345 1.76-3.865 1.76-6.611 0-3.513-.551-4.947-2.646-6.889-3.083-2.857-9.619-3.356-12.994-.992M179.763 88.508c-6.022 3.393-7.716 13.018-3.23 18.349 6.432 7.643 17.494 5.877 21.02-3.356 1.962-5.138.915-9.773-3.049-13.498-3.119-2.93-10.811-3.71-14.741-1.495"/></svg>