<svg xmlns="http://www.w3.org/2000/svg" width="280" height="280" viewBox="0 0 280 280"><path fill-rule="evenodd" d="M170.955 32.099c-9.341 1.209-22.589 5.242-36.455 11.1-15.985 6.753-29.444 11.278-38.106 12.812-8.533 1.51-26.544.839-34.183-1.275l-5.29-1.463-5.55 6.113C37.875 74.254 28.308 92.199 22.789 113c-2.896 10.915-3.584 35.411-1.334 47.5 8.973 48.216 43.689 84.81 91.601 96.558 7.995 1.96 12.053 2.315 26.444 2.314 22.768-.002 36.864-3.287 55.471-12.924 27.851-14.424 49.362-39.838 58.85-69.524 4.447-13.915 5.641-21.757 5.622-36.924-.021-16.026-1.976-26.966-7.422-41.525-6.845-18.298-13.682-28.759-27.765-42.48C212.662 44.699 211.427 43.678 203 38.416c-11.978-7.479-16.367-8.344-32.045-6.317"/></svg>