<svg xmlns="http://www.w3.org/2000/svg" width="90" height="51" viewBox="0 0 90 51"><path fill-rule="evenodd" d="M59 16.698c-9.539 4.912-8.72 19.352 1.314 23.171 10.518 4.003 20.558-6.037 16.555-16.555-2.677-7.031-11.045-10.13-17.869-6.616m-1.077 4.225C51.482 27.365 55.889 38 65 38c5.847 0 10-4.153 10-10 0-9.111-10.635-13.518-17.077-7.077M63 22.694c-2.217.792-4 3.396-4 5.842 0 5.171 9.162 7.799 10.934 3.138.486-1.28.577-3.831.201-5.67-.532-2.599-1.234-3.398-3.159-3.594-1.362-.138-3.151-.01-3.976.284m1 3.723c0 .871.713 1.583 1.583 1.583 1.766 0 1.459-2.153-.395-2.771-.654-.218-1.188.317-1.188 1.188M15.5 29c-.34.55-.141 1 .441 1S17 29.55 17 29s-.198-1-.441-1-.719.45-1.059 1"/></svg>