<svg xmlns="http://www.w3.org/2000/svg" width="600" height="600" viewBox="0 0 600 600"><path fill-opacity=".255" fill-rule="evenodd" d="M310.65 1.549C296.592 4.343 285.686 8.848 270 18.34c-27.956 16.917-26.991 16.649-63.5 17.673-32.066.899-38.679 2.04-52.735 9.102-10.318 5.184-21.585 16.061-27.331 26.385-2.143 3.85-7.357 15.498-11.586 25.885s-8.287 19.477-9.019 20.2c-1.102 1.091-2.355.112-7.329-5.722-3.3-3.872-7.923-9.812-10.273-13.201-2.351-3.389-4.934-6.95-5.741-7.912-2.169-2.588-6.141-2.206-8.097.779-1.46 2.228-1.601 5.328-1.188 26.095.415 20.883.288 23.626-1.117 24.094-.871.291-4.922 2.139-9.001 4.107-15.209 7.338-25.353 21.156-30.687 41.804-3.709 14.358-3.104 30.581 1.978 53.027 6.659 29.416 6.585 34.585-.697 48.344-7.264 13.728-9.887 23.308-10.437 38.132-.349 9.406-.04 14.768 1.212 21 6.337 31.551 26.878 69.947 60.115 112.368 4.74 6.05 12.123 16.194 16.406 22.542 10.592 15.699 18.599 25.497 31.027 37.97 49.592 49.772 123.446 78.925 200.076 78.977 33.857.024 64.965-5.469 93.549-16.516C512.03 550.078 566.838 473.058 576.112 372c2.03-22.115-1.206-67.794-5.138-72.532-1.732-2.087-5.716-1.819-6.939.466-.569 1.064-1.043 5.002-1.052 8.75-.023 8.95-1.509 22.97-4.009 37.816-7.031 41.763-21.971 79.073-43.061 107.544-8.115 10.955-27.338 30.492-26.522 26.956 3.461-14.993 3.317-52.168-.28-72.5-2.671-15.099-8.233-33.757-12.967-43.5-3.089-6.357-4.064-7.548-6.4-7.817-1.609-.185-2.964.231-3.257 1-.275.724-.678 10.092-.894 20.817-.57 28.277-4.198 43.479-16.106 67.5-7.557 15.243-13.779 23.958-25.075 35.122-16.413 16.221-36.336 26.77-60.412 31.987-10.464 2.267-41.305 2.586-53 .549-43.337-7.552-74.374-29.226-93.363-65.199-9.668-18.316-13.912-35.964-13.939-57.959-.039-31.704 10.148-57.345 31.702-79.797 13.826-14.401 28.718-23.955 46.1-29.575 17.81-5.758 39.755-6.167 49.884-.929 1.608.831 9.088 7.494 16.621 14.806 23.535 22.843 45.332 37.011 69.067 44.895 17.588 5.842 24.522 6.96 42.928 6.922 14.47-.031 17.691-.351 26.183-2.604 45.706-12.126 72.418-48.63 72.239-98.718-.11-30.653-9.949-61.047-28.809-89-10.672-15.815-42.061-44.202-61.86-55.942-6.706-3.977-7.607-4.927-11.943-12.602-13.248-23.448-38.564-51.528-58.322-64.688C368.477 4.443 336.83-3.654 310.65 1.549m-2.379 10.934c-14.191 3.668-21.937 7.458-44.569 21.808-15.455 9.798-24.439 11.752-56.202 12.22-30.546.451-41.424 2.686-54.131 11.12-11.671 7.747-17.775 17.031-27.89 42.421-3.579 8.986-7.825 18.672-9.435 21.524l-2.927 5.186 2.391 2.245c1.315 1.235 3.027 2.002 3.806 1.703 2.218-.851 11.051-18.995 15.68-32.21 2.312-6.6 5.598-14.475 7.302-17.5 4.178-7.414 12.998-16.046 19.704-19.284 10.557-5.097 15.611-5.854 45-6.743 15.125-.457 30.148-1.347 33.384-1.978 13.095-2.55 27.482-8.911 43.966-19.436 22.925-14.638 47.022-18.115 72.427-10.449 10.136 3.059 31.53 14.018 42.22 21.629 10.501 7.475 32.27 28.658 38.503 37.466 2.2 3.109 5.48 6.36 7.289 7.226l3.289 1.574-4.211-6.253C420.926 50.69 393.51 27.564 363 16.542c-19.418-7.016-37.965-8.391-54.729-4.059M307 77.618c-53.941 4.76-105.006 24.363-140.622 53.981-7.544 6.274-19.378 17.514-19.378 18.407 0 .309 1.329 1.348 2.952 2.307l2.953 1.744 11.346-9.331C210.984 106.293 269.193 85.98 332.5 86.011c60.471.03 117.724 18.946 159.515 52.703 9.728 7.858 27.301 26.068 33.389 34.599 2.624 3.678 5 6.687 5.279 6.687.641 0-3.666-7.424-9.571-16.5-8.783-13.497-35.381-38.107-55.112-50.991-22.283-14.551-62.619-28.474-95.818-33.075-11.151-1.545-52.713-2.739-63.182-1.816M83.421 116.75c.287 3.162.785 9.713 1.107 14.557.702 10.559 2.68 22.248 5.509 32.561 2.653 9.668 9.443 26.931 11.784 29.955 1.781 2.302 1.835 2.168 6.015-15 2.32-9.528 4.831-20.248 5.58-23.823s1.659-7.631 2.022-9.014c.584-2.225-.358-3.393-8.207-10.176-4.877-4.215-12.179-11.522-16.226-16.237-4.048-4.715-7.527-8.573-7.732-8.573s-.138 2.588.148 5.75m-15.489 38.5C50.676 164.083 40.707 183.402 40.71 208c.001 10.941 1.516 20.921 5.994 39.5 1.952 8.099 2.671 13.769 2.724 21.5l.072 10.5-6.728 14c-7.97 16.585-9.743 23.411-9.74 37.5.005 18.367 5.076 35.956 17.444 60.5 7.499 14.881 23.241 41.116 24.135 40.222.217-.216-.527-3.055-1.653-6.308-9.597-27.722-15.481-73.616-13.195-102.914l1.014-13-6.758-7-6.759-7 3.297-8c6.573-15.948 6.559-21.742-.112-48.812-4.145-16.82-5.344-31.474-3.478-42.508 2.483-14.69 12.141-28.366 24.418-34.577 5.555-2.811 6.454-4.252 5.008-8.021-.819-2.134-1.167-2.066-8.461 1.668m368.401 25.365c-1.535 2.343-1.56 2.89-.242 5.25 2.778 4.973 10.909 3.21 10.909-2.365 0-5.38-7.673-7.455-10.667-2.885m-339.336 38.94C80.798 254.715 72.265 288.217 70.649 323c-.478 10.288-.436 10.709.395 4 4.238-34.209 15.194-72.542 28.076-98.232 2.684-5.352 4.87-10.077 4.858-10.5-.012-.422-.868-1.868-1.902-3.213l-1.879-2.445z"/><path fill-opacity=".121" fill-rule="evenodd" d="M316.5.637c-17.005 2.705-33.022 9.173-51.074 20.624-21.313 13.52-22.288 13.771-57.426 14.767-32.67.927-39.522 2.096-54 9.219-6.538 3.216-10.231 5.922-16 11.725-8.652 8.703-13.485 16.862-20.453 34.528-6.007 15.231-11.641 27.5-12.627 27.5-1.163 0-9.637-10.156-16.997-20.372-4.889-6.786-7.221-9.205-9.086-9.429-4.927-.59-5.337 1.271-5.337 24.207 0 11.602.302 22.444.671 24.094.664 2.966.561 3.053-9.098 7.678-15.797 7.565-25.05 18.586-30.916 36.822-5.903 18.352-5.439 33.881 1.941 65 2.298 9.688 3.221 16.041 3.27 22.5.067 8.946.037 9.06-5.123 19-2.855 5.5-6.063 12.541-7.129 15.647-6.709 19.555-4.844 43.986 5.371 70.353 9.52 24.574 30.414 58.662 53.939 88 3.969 4.95 10.498 13.95 14.508 20C143.12 546.141 211.381 586.537 295.5 597.643c16.022 2.115 55.219 2.399 70 .507 111.44-14.263 190.174-92.265 207.959-206.025 3.833-24.517 3.849-58.1.038-81.814-1.72-10.703-2.974-12.91-6.793-11.952-3.033.762-3.673 2.958-3.69 12.671-.017 9.014-2.28 28.021-5.093 42.765-7.616 39.914-23.417 76.666-44.801 104.205-6.439 8.292-22.953 25.5-23.729 24.725-.214-.214.329-5.077 1.206-10.807 1.95-12.744 1.39-44.027-1.064-59.418-3.089-19.38-8.365-37.265-14.693-49.812-2.6-5.155-3.237-5.777-5.636-5.5l-2.704.312-.624 20.5c-.465 15.257-1.172 23.057-2.766 30.5-6.358 29.699-18.414 52.802-37.595 72.048-24.148 24.227-52.23 35.468-88.515 35.43-26.772-.029-47.909-4.734-68.028-15.144-32.861-17.002-55.423-47.527-63.694-86.175-2.108-9.849-2.387-34.765-.502-44.808 7.913-42.163 39.36-77.479 79.724-89.532 7.895-2.357 10.78-2.695 23.5-2.753 21.323-.097 21.345-.088 38.927 16.743 35.298 33.788 64.419 48.837 102.153 52.788 35.37 3.703 70.351-10.822 90.382-37.529 7.771-10.361 14.791-27.739 17.551-43.443 1.433-8.156 1.439-30.555.01-39.625-3.988-25.318-15.565-53.231-30.275-73-11.721-15.752-37.395-38.685-56.763-50.704-9.061-5.622-9.282-5.855-15.556-16.301-9.695-16.141-19.585-28.777-32.869-41.995C393.523 16.602 362.736 1.664 331 .56c-6.325-.22-12.85-.186-14.5.077m-6.028 10.888c-12.754 2.803-27.146 9.511-42.329 19.729-4.046 2.723-10.121 6.237-13.5 7.81-11.657 5.425-16.089 6.106-45.143 6.935-30.642.875-37.306 1.942-50.013 8.005-15.334 7.317-23.396 18.133-34.136 45.798-2.497 6.434-6.272 15.127-8.387 19.317l-3.847 7.619 3.016 2.881c2.974 2.841 3.037 2.853 4.524.881 3.334-4.42 10.658-20.299 14.867-32.232 5.108-14.484 8.912-21.288 15.741-28.153 6.075-6.106 12.463-9.595 22.41-12.238 6.546-1.739 12.404-2.21 35.825-2.881 38.439-1.101 44.821-2.88 74.545-20.774 15.35-9.241 24.587-12.708 37.877-14.213 36.399-4.124 82.983 20.718 114.079 60.834 3.889 5.018 7.331 8.426 9.149 9.06l2.915 1.016-1.783-3.028c-8.75-14.863-33.552-42.227-47.043-51.901-17.139-12.291-34.122-20.282-51.071-24.03-10.23-2.262-28.424-2.472-37.696-.435M314 77.083c-62.775 3.3-123.631 28.453-161.3 66.669l-6.8 6.899 4.012 1.809 4.012 1.81 5.788-5.308c3.184-2.919 9.903-8.367 14.933-12.106 82.443-61.291 203.008-67.671 291.759-15.438 22.023 12.961 44.534 32.975 58.942 52.403 4.21 5.677 7.654 10.127 7.654 9.889 0-.908-7.801-14.572-11.565-20.257-4.782-7.224-21.779-24.995-32.831-34.327-25.342-21.399-54.685-35.619-92.104-44.636-21.052-5.073-31.263-6.377-61.5-7.853-3.575-.174-13.025.026-21 .446M83.01 114.224c.021 8.712 2.146 28.58 4.094 38.276 5.268 26.223 17.191 51.088 33.618 70.112 5.334 6.176 22.001 20.388 23.91 20.388.727 0 1.908-3.174 2.882-7.75.908-4.263 3.374-14.95 5.48-23.75 10.064-42.052 10.05-41.985 8.759-42.414-.689-.228-6.428-3.005-12.753-6.17-24.239-12.13-43.316-26.785-60.13-46.192L83 109.949zm-15.982 41.309c-9.03 4.865-14.454 10.541-19.081 19.967-9.374 19.097-10.059 34.517-2.924 65.833 6.603 28.974 6.272 35-2.906 52.938-7.489 14.637-9.596 22.912-9.483 37.229.197 24.928 10.788 52.312 35.12 90.808 4.104 6.495 7.617 11.654 7.805 11.466s-1.421-5.848-3.576-12.577c-4.588-14.325-8.435-33.197-10.635-52.165-1.987-17.133-1.384-56.21 1.111-72.032 5.074-32.169 14.417-62.094 27.193-87.098l3.882-7.598-4.266-8.902c-2.346-4.896-5.611-13.142-7.255-18.325s-3.977-10.474-5.183-11.758c-1.971-2.098-2.032-2.459-.607-3.576 2.118-1.661 1.261-7.753-1.086-7.72-.901.012-4.55 1.592-8.109 3.51m370.574 23.566c-3.393 2.668-3.18 6.402.523 9.154 2.241 1.665 2.973 1.768 5 .699 2.925-1.541 3.84-2.848 3.86-5.511.038-5.111-5.278-7.571-9.383-4.342M95.366 222.621c-14.961 32.001-23.499 66.745-24.813 100.965l-.495 12.914 1.49-10.99c4.871-35.925 15.639-72.816 29.138-99.827 3.436-6.877 3.6-9.371.767-11.722-1.242-1.03-2.183.309-6.087 8.66"/><path fill-opacity=".257" fill-rule="evenodd" d="M315.5 1.043c-16.182 2.509-32.596 9.252-50.995 20.948C244.394 34.775 243.143 35.092 209 36.029c-28.982.795-35.947 1.71-48.239 6.336-16.607 6.252-27.919 16.927-36.698 34.635-2.045 4.125-6.526 14.475-9.957 23s-6.883 16.372-7.67 17.439c-1.393 1.885-1.518 1.857-4.533-1-1.705-1.617-6.421-7.439-10.479-12.939C79.367 87.162 80.61 88.399 77.388 89.533c-2.326.817-2.99 1.807-3.679 5.482-.695 3.701-.291 35.616.554 43.776.201 1.947-.755 2.713-6.343 5.085-17.908 7.603-29.594 21.8-34.845 42.331-4.324 16.906-3.724 30.163 2.637 58.293 2.613 11.552 3.641 18.502 3.698 25 .078 8.833-.008 9.17-4.651 18.201-6.403 12.456-8.533 18.294-10.279 28.18-1.849 10.47-1.857 17.04-.035 29.125C29.027 375.399 50.444 416.385 84.011 459c4.982 6.325 12.34 16.45 16.351 22.5 25.438 38.371 58.009 66.84 100.138 87.526 80.058 39.31 173.021 41.107 246 4.756 23.155-11.534 41.794-25.205 60.577-44.432 38.177-39.078 62.034-91.97 67.973-150.698 1.564-15.462.723-54.818-1.437-67.28-1.936-11.171-2.291-12.135-4.753-12.917-3.584-1.137-4.647 1.134-5.313 11.343-3.509 53.778-17.598 99.96-41.417 135.753-8.699 13.073-20.92 27.576-28.777 34.154l-5.023 4.205 1.351-6.705c2.047-10.168 2.761-35.825 1.397-50.205-2.198-23.155-7.455-44.644-15.111-61.766-3.137-7.014-5.126-8.878-8.214-7.693-1.281.492-1.606 3.934-2.005 21.273-.37 16.035-.959 22.915-2.623 30.599-6.237 28.801-18.639 52.355-37.498 71.214-24.285 24.285-52.176 35.549-88.127 35.592-49.766.06-88.313-18.591-112.922-54.639-6.478-9.489-11.072-18.9-15.092-30.92-18.911-56.533 4.654-116.321 56.374-143.034 15.65-8.083 35.022-12.136 50.64-10.595 14.239 1.406 15.892 2.389 33.921 20.19 26.547 26.211 54.684 41.912 85.766 47.859 14.813 2.834 38.821 2.337 51.313-1.061 34.031-9.259 57.751-33.111 67.143-67.519 2.521-9.239 2.734-11.483 2.793-29.5.072-21.825-.955-28.667-7.053-47-6.862-20.627-17.291-39.225-30.849-55.009-12.084-14.068-36.928-34.876-52.496-43.969-5.721-3.341-7.505-5.008-9.444-8.821-1.315-2.585-5.062-8.751-8.327-13.701-25.924-39.307-58.94-65.005-95.692-74.481C340.794.724 325.346-.484 315.5 1.043m3.5 8.958c-15.675 1.928-31.256 8.287-49.819 20.333-21.481 13.94-24.13 14.624-60.681 15.676-31.648.91-38.022 2.002-50.766 8.699-14.232 7.479-21.73 17.771-32.33 44.379-3.571 8.965-7.895 18.93-9.609 22.145-1.824 3.423-2.738 6.192-2.205 6.68 2.659 2.436 19.228 14.476 21.133 15.356 1.989.919 3.269.024 12.147-8.497 33.688-32.335 74.955-52.934 127.849-63.817C279.945 69.88 285.746 69 287.61 69s3.39-.345 3.39-.766-5.16-5.912-11.468-12.202l-11.467-11.435 5.841-3.693c15.898-10.052 23.814-14.326 31.828-17.185 8.438-3.009 9.365-3.125 24.766-3.113 15.241.012 16.498.168 26.5 3.279 12.669 3.942 28.15 11.831 41 20.895 10.454 7.373 32.334 28.454 38.874 37.455 3.538 4.869 8.275 8.765 10.658 8.765 1.024 0-3.35-6.833-10.884-17-24.085-32.503-57.609-55.902-89.423-62.415-9.301-1.904-20.507-2.533-28.225-1.584m-2 66.671c-54.971 3.015-105.395 20.182-143.484 48.849C165.117 131.842 146 148.81 146 149.944c0 .414 1.745 1.539 3.878 2.501l3.877 1.748 9.373-7.857c22.803-19.118 45.751-32.393 74.357-43.013 93.68-34.778 204.933-14.414 268.873 49.215 9.627 9.58 22.331 25.027 25.292 30.751.823 1.593 1.747 2.648 2.051 2.343.863-.863-9.163-18.355-14.972-26.123-10.629-14.21-31.074-32.816-50.193-45.677C439.257 94.135 393.123 79.99 348.5 77.027c-14.412-.957-19.488-1.014-31.5-.355M83 116.166c0 9.522 1.785 25.799 4.066 37.083 9.648 47.717 38.654 85.06 79.871 102.83 9.423 4.062 20.748 7.275 21.436 6.081.21-.363 1.157-4.26 2.105-8.66a598 598 0 0 1 3.595-15.5c1.029-4.125 4.324-18.075 7.322-31s5.714-24.175 6.036-25c.475-1.216-1.735-1.935-11.673-3.797-29.644-5.555-62.084-20.961-85.758-40.727-7.659-6.395-18.018-16.828-23.782-23.954L83 109.544zm-14.5 38.447c-16.559 8.065-26.619 25.557-28.172 48.982-.712 10.729.575 20.863 4.939 38.905 2.675 11.057 3.151 14.943 3.189 26l.044 13-6.258 12.5c-8.069 16.117-9.701 22.353-9.682 37 .034 25.664 11.179 54.466 35.708 92.285 3.847 5.932 7.139 10.642 7.314 10.466.176-.175-1.228-5.195-3.12-11.156-7.41-23.351-11.356-47.897-12.15-75.595-1.424-49.627 8.137-94.059 29.317-136.253l4.394-8.752-3.473-6.895c-4.471-8.879-11.192-28.38-12.633-36.658-.618-3.549-1.415-6.629-1.771-6.845s-3.796 1.141-7.646 3.016m369.78 23.407c-2.429.977-3.81 4.734-2.851 7.756.564 1.777 4.398 4.224 6.618 4.224 1.872 0 4.953-4.044 4.953-6.5 0-2.66-3.167-6.542-5.25-6.437-.687.035-2.249.466-3.47.957M95.708 221.768C80.165 254.511 71.619 289.238 70.551 324c-.484 15.745-.31 15.533 2.056-2.5 4.348-33.137 14.849-68.548 28.22-95.162l3.938-7.838-2.218-3.232-2.219-3.232zM77 398.421c0 2.406 5.004 20.514 8.173 29.579 11.206 32.047 33.419 66.326 57.984 89.481 40.259 37.949 92.06 61.732 152.843 70.172 17.584 2.442 56.901 2.452 73.5.019 63.854-9.359 117.625-41.286 152.25-90.399 1.237-1.756 2.25-3.632 2.25-4.169s-4.379-3.466-9.732-6.508c-8.105-4.607-10.005-5.328-11.365-4.314-.897.67-5.106 4.143-9.351 7.718-13.767 11.592-29.848 21.176-46.851 27.923-6.193 2.458-8.213 2.873-9.811 2.018-3.051-1.633-2.022-5.13 2.11-7.166 1.925-.949 7.481-3.528 12.347-5.731s12.606-6.364 17.199-9.247c9.062-5.688 9.659-6.577 12.921-19.257 2.658-10.331 3.271-9.312-9.967-16.567-3.3-1.808-7.679-4.342-9.73-5.631-2.052-1.288-4.077-2.333-4.5-2.322-.424.01-3.198 3.888-6.166 8.616-17.334 27.615-42.39 47.178-72.237 56.401-31.212 9.645-72.782 7.481-104.47-5.438-42.473-17.316-74.122-59.116-79.585-105.111L193.566 398h-58.283c-32.056 0-58.283.189-58.283.421"/><path fill-opacity=".524" fill-rule="evenodd" d="M310.065 2.032c-14.487 3.028-27.821 9.018-46.92 21.075C244.164 35.091 235.915 37 203.111 37c-21.236 0-27.376.719-39.238 4.592-14.849 4.848-26.949 14.44-35.557 28.185-2.506 4.003-7.801 15.253-11.767 25C108.777 113.885 106.377 119 105.187 119c-1.495 0-10.063-9.641-15.997-18-9.429-13.283-9.405-13.266-13.319-10.097-2.317 1.876-2.351 2.174-2.352 20.75-.001 10.366.341 21.16.76 23.988l.761 5.141-9.744 4.74c-12.792 6.223-20.25 13.493-26.14 25.478-6.775 13.789-8.48 22.497-7.914 40.43.406 12.869 1.035 17.48 4.307 31.57 2.965 12.767 3.845 18.666 3.891 26.074l.06 9.573-5.729 11.436c-3.151 6.289-6.674 15.031-7.829 19.426-2.701 10.285-2.946 27.403-.567 39.732 5.806 30.098 25.917 67.453 59.691 110.873 5.397 6.937 13.415 17.962 17.818 24.5 22.935 34.051 51.172 59.374 89.455 80.225C223.06 581.572 264.56 594.115 302 597.984c12.616 1.303 48.625 1.282 60.789-.036 31.081-3.369 63.698-13.377 90.211-27.681 88.459-47.724 136.114-151.638 119.908-261.465-1.299-8.798-3.324-11.72-6.825-9.847-1.697.909-2.087 2.081-2.103 6.33-.011 2.868-.672 11.63-1.47 19.47-5.696 55.983-23.809 103.234-52.979 138.208-6.12 7.338-20.412 21.531-21.004 20.859-.156-.177.399-3.922 1.233-8.322 1.044-5.508 1.517-14.386 1.521-28.5.005-21.36-1.257-33.257-5.465-51.5-3.824-16.583-12.02-36.873-15.421-38.179-3.295-1.264-3.893 1.439-3.977 17.979-.099 19.476-2.171 33.837-7.1 49.2-22.396 69.809-83.274 104.135-157.012 88.532-25.718-5.442-45.312-15.86-62.895-33.443-15.558-15.559-26.56-34.824-32.642-57.16-3.155-11.585-3.248-12.491-3.213-31.429.034-18.138.229-20.195 2.788-29.447 7.839-28.336 24.763-51.902 48.656-67.751 19.866-13.177 45.032-19.821 63.945-16.881 11.763 1.829 15.013 3.801 29.445 17.87 20.424 19.909 32.002 28.453 51.11 37.716 22.187 10.756 36.237 14.001 60.5 13.973 15.83-.018 18.411-.273 27.044-2.672 12.389-3.441 19.447-6.619 29.373-13.225 17.191-11.442 28.523-26.135 35.539-46.083 13.128-37.32 4.517-85.926-22.39-126.401-11.669-17.552-45.392-47.796-64.686-58.011-3.196-1.692-5.256-3.734-6.903-6.838-1.291-2.434-5.334-8.998-8.984-14.587-24.98-38.252-57.668-64.06-94.02-74.233-7.971-2.231-11.931-2.705-24.973-2.988-8.525-.186-17.496.08-19.935.59m9.435 7.593c-16.09 1.637-30.896 7.811-52.577 21.925C247.991 43.875 243.281 45.012 207 46.017c-31.397.871-34.787 1.415-48 7.702-14.786 7.037-23.069 18.203-33.959 45.781-2.824 7.15-6.776 16.332-8.783 20.405l-3.649 7.405 3.445 2.881c1.895 1.585 7.204 5.556 11.796 8.826l8.35 5.943 10.15-9.392c13.437-12.434 19.766-17.472 33.056-26.311C211.72 87.766 254.312 73.049 299 67.935c13.532-1.549 48.497-1.547 62 .003 28.955 3.326 60.437 11.342 80.402 20.474 3.215 1.471 6.069 2.451 6.341 2.178 1.561-1.561-18.642-27.516-30.816-39.59C396.688 30.926 372.044 16.885 347 11.157c-5.256-1.202-21.723-2.119-27.5-1.532m-8 67.042C269.803 79.226 220.512 94.489 189 114.6c-18.496 11.805-44.593 34.065-42.5 36.251 1.696 1.771 21.451 10.195 32.166 13.716 17.73 5.826 30.615 7.889 49.08 7.858 15.133-.025 16.287.104 16.853 1.885 1.084 3.419-1.904 4.992-10.81 5.69-35.054 2.747-75.875-9.132-109.231-31.787C113.225 140.516 98.727 127.655 90.5 118l-7-8.214-.323 6.857c-.719 15.299 3.11 38.907 9.284 57.242 16.447 48.838 57.273 84.214 105.852 91.722 11 1.7 13.443 3.111 11.541 6.666-.975 1.821-1.74 1.941-8.711 1.359-17.099-1.426-39.216-8.661-54.438-17.809-16.689-10.029-33.859-25.554-42.27-38.223-3.656-5.507-3.762-5.577-5.232-3.479-2.696 3.848-11.257 24.117-15.35 36.339-9.121 27.238-12.815 48.68-13.569 78.757-1.363 54.411 9.208 98.265 33.597 139.372 40.341 67.996 115.883 112.773 203.297 120.502 16.742 1.48 52.817.643 65.822-1.527C442.147 576.026 496.596 540.397 531.269 484c20.947-34.071 34.505-79.941 36.208-122.5l.52-13-2.39 10.57c-17.727 78.413-55.998 130.865-114.026 156.279-11.317 4.956-13.67 5.454-15.476 3.278-2.141-2.58.051-4.473 10.075-8.703 5.514-2.327 14.592-6.974 20.173-10.327 11.994-7.206 13.603-9.636 16.298-24.597 2.089-11.596 2.325-39.075.456-53-1.482-11.038-5.379-29.731-7.397-35.48l-1.398-3.981-.708 8.981c-4.132 52.352-33.472 98.519-76.104 119.749-19.234 9.578-36.411 13.206-62 13.095-42.08-.182-74.147-11.936-100.276-36.757-18.142-17.232-30.406-38.645-37.49-65.458-2.905-10.993-3.081-12.718-3.136-30.649-.053-17.493.159-19.86 2.674-29.839 4.761-18.888 11.501-33.115 22.552-47.603 22.692-29.75 53.113-46.185 85.676-46.288 21.065-.066 28.793 3.29 47.5 20.627 28.786 26.68 57.78 42.576 87 47.7 11.797 2.069 31.771 1.608 42.5-.98 11.62-2.803 27.178-10.446 35.757-17.566 26.338-21.856 36.276-60.571 26.253-102.268-6.811-28.336-19.476-51.22-39.461-71.301-22.98-23.09-42.185-36.227-69.24-47.363C398.056 81.08 354.228 74.046 311.5 76.667M68.257 154.558c-12.216 5.943-19.296 14.661-24.915 30.678-2.038 5.81-2.641 9.765-3.014 19.764-.492 13.203-.332 14.423 5.629 43 2.603 12.476 3.156 17.18 2.837 24.113-.377 8.192-.697 9.219-6.546 21-7.043 14.189-9.054 20.879-9.913 32.981-1.433 20.164 5.775 44.682 21.76 74.017 6.306 11.573 21.882 36.245 22.495 35.632.185-.184-1.439-5.777-3.607-12.427-4.305-13.199-9.23-36.086-11.15-51.816-1.574-12.892-1.576-54.085-.003-67 3.562-29.251 12.923-61.621 25.312-87.523l7.162-14.973-4.555-9.752c-4.969-10.64-9.869-25.189-11.787-35.002-.672-3.437-1.501-6.242-1.842-6.233s-3.879 1.602-7.863 3.541m361.234 4.245c-10.601 4.98-15.027 17.174-9.908 27.299 2.029 4.013 7.947 8.694 12.563 9.937 12.917 3.478 26.098-7.885 24.528-21.144-1.167-9.855-8.06-16.624-17.815-17.496-3.941-.352-6.42.02-9.368 1.404m7.732 19.754c-2.829 1.981-2.941 6.725-.223 9.443 2.403 2.403 4.786 2.538 7.777.443C449.296 185.278 446.563 177 441 177c-.855 0-2.555.701-3.777 1.557"/></svg>