<svg xmlns="http://www.w3.org/2000/svg" width="256" height="256" viewBox="0 0 256 256"><path fill-rule="evenodd" d="M122.5 3.588c-8.628 2.058-11.7 3.078-16.609 5.515-6.125 3.039-71.109 52.987-79.718 61.271-2.929 2.819-6.529 7.151-8 9.626L15.5 84.5l-.306 28.685c-.19 17.778.091 30.159.737 32.56 2.571 9.546 6.067 12.908 44.569 42.857 44.804 34.851 47.351 36.469 60.699 38.544 5.885.915 9.253.908 14.949-.029 13.206-2.173 13.248-2.201 67.352-44.022 13.2-10.204 26.203-20.797 28.896-23.54 8.556-8.717 8.56-8.737 8.56-43.055 0-34.015-.055-34.305-8.13-43.082-5.93-6.444-71.97-58.207-81.97-64.248-6.795-4.106-21.998-7.098-28.356-5.582m-.191 25.642c-7.721 2.481-12.845 10.46-11.252 17.521 2.936 13.021 25.756 17.893 36.472 7.787 8.125-7.663 5.813-19.142-4.855-24.11-5.611-2.612-14.363-3.127-20.365-1.198M94.546 52.167C81.311 58.994 75.232 65.005 69.778 76.66c-2.736 5.848-3.111 7.701-3.111 15.378 0 7.942.319 9.391 3.543 16.095 4.334 9.011 9.142 14.673 16.975 19.993 12.543 8.517 25.473 12.287 42.315 12.335 19.189.055 35.204-5.575 46.851-16.471 14.782-13.827 18.356-32.503 9.427-49.256-3.641-6.831-14.301-17.228-21.085-20.566l-4.74-2.332-4.519 5.026c-12.72 14.148-40.826 12.27-49.974-3.34-1.457-2.487-3.17-4.5-3.805-4.474-.635.027-3.834 1.43-7.109 3.119m3.482 18.299c-.669.807-1.062 1.896-.873 2.421s5.97 5.316 12.845 10.648 12.636 10.049 12.801 10.483-3.752 3.87-8.706 7.635c-8.712 6.623-10.91 9.219-9.601 11.338.343.555 1.982 1.009 3.643 1.009 2.23 0 5.543-1.959 12.691-7.503 14.007-10.867 14.41-11.252 13.483-12.883-.446-.785-5.311-4.964-10.811-9.287-20.194-15.872-22.68-17.225-25.472-13.861"/></svg>