<svg xmlns="http://www.w3.org/2000/svg" width="256" height="256" viewBox="0 0 256 256"><path fill-rule="evenodd" d="M116.275 9.539c-7.414 1.997-15.676 6.387-23.781 12.636-6.396 4.933-22.02 16.809-50.994 38.763C27.828 71.297 22.588 76.239 19.17 82l-2.67 4.5v41c0 40.882.007 41.012 2.303 45.314 3.154 5.907 10.642 12.692 31.197 28.268 9.625 7.293 23.246 17.685 30.269 23.094s15.511 11.706 18.863 13.994c16.086 10.98 35.342 12.517 51.272 4.092 4.715-2.494 18.682-12.655 42.459-30.889 5.3-4.065 14.812-11.31 21.137-16.1 14.779-11.192 19.518-15.597 22.821-21.215l2.679-4.558v-41c0-38.671-.111-41.224-1.955-44.941-2.716-5.478-9.254-11.918-21.545-21.227a6747 6747 0 0 1-19-14.445c-29.304-22.387-42.105-31.769-46.575-34.135-10.442-5.527-23.356-7.12-34.15-4.213m21.246 27.116c-11.561 2.531-13.72 3.546-11.744 5.522 1.143 1.143 3.763.865 17.258-1.834l3.059-.612-2.547 5.759c-3.388 7.659-3.357 9.738.137 9.326 2.272-.267 3.09-1.315 5.322-6.816 1.451-3.575 3.056-6.368 3.566-6.207s3.342 2.098 6.292 4.305c5.182 3.875 9.033 4.759 9.854 2.262.495-1.504-16.247-14.396-18.484-14.234-.954.069-6.675 1.207-12.713 2.529M82 48.199c-5.225 1.097-10.02 2.42-10.655 2.941-1.887 1.548-7.615 16.713-6.959 18.423.358.934 1.497 1.447 2.793 1.257 1.646-.241 2.84-1.927 4.826-6.82 1.451-3.575 2.876-6.5 3.166-6.5.289 0 3.802 2.436 7.807 5.414 5.729 4.26 7.625 5.195 8.901 4.391 2.641-1.666 1.947-2.833-4.617-7.767-3.43-2.579-6.454-5.039-6.719-5.468-.264-.428 3.663-1.632 8.728-2.674 7.051-1.452 9.288-2.306 9.543-3.646.443-2.328-4.17-2.205-16.814.449m103.399 15.965c-.712 1.151.257 2.151 8.166 8.431l3.897 3.095-5.481 1.25C180.473 79.564 179 80.089 179 81.57c0 2.513 2.421 2.638 11.134.575 4.6-1.089 8.532-1.812 8.738-1.606.207.206-.832 3.389-2.306 7.073-2.13 5.319-2.413 6.872-1.374 7.542 2.804 1.808 4.416.054 7.969-8.667 2.014-4.943 3.692-9.437 3.73-9.987C207 74.896 190.56 63 188.234 63c-1.164 0-2.44.524-2.835 1.164M130.116 79.25c-.997 2.338-2.375 5.965-3.062 8.062-1.423 4.34-1.996 4.626-14.391 7.167-8.452 1.734-11.186 3.406-9.046 5.532.507.504 5.572-.121 11.883-1.466l11-2.343 8.387 6.058c6.059 4.376 8.787 5.805 9.827 5.149 2.625-1.656 1.852-2.805-5.851-8.699l-7.637-5.842 2.928-7.605c3.139-8.152 3.107-10.263-.158-10.263-1.481 0-2.581 1.206-3.88 4.25m-76.026 14c-.473 1.237-2.037 5.14-3.475 8.672S48 108.896 48 109.569c0 1.983 17.112 14.56 19.356 14.226 3.681-.547 2.773-2.561-3.307-7.338-3.327-2.614-6.049-5.058-6.049-5.432 0-.373 2.925-1.218 6.5-1.877 8.535-1.573 11.5-2.765 11.5-4.623 0-1.925-1.905-1.914-11.471.064-4.226.874-7.94 1.333-8.253 1.02s.397-3.093 1.578-6.178C60.632 92.17 60.58 91 57.475 91c-1.696 0-2.807.738-3.385 2.25m131.524 23.566c-.277.448-1.49 3.486-2.695 6.75s-2.312 6.079-2.46 6.256-2.968-1.772-6.264-4.332c-3.991-3.099-6.754-4.544-8.267-4.323-3.99.585-3.172 2.486 2.996 6.966 3.307 2.402 5.889 4.783 5.736 5.291-.152.508-3.175 1.508-6.718 2.222-7.969 1.606-11.222 3.011-10.692 4.618.674 2.049 3.707 1.848 15.727-1.04l11.478-2.758 3.319-8.89c1.826-4.89 3.087-9.495 2.804-10.233-.561-1.463-4.151-1.844-4.964-.527M108.449 136.5l-2.916 7.043-1.467 3.543-6.511-5.117c-4.794-3.768-7.045-4.948-8.533-4.476-3.638 1.155-2.156 3.248 7.111 10.05l9.132 6.703 10.618-2.288c13.24-2.854 15.117-3.529 15.117-5.433 0-1.972-2.876-1.949-11.925.094-3.943.891-7.393 1.396-7.665 1.124-.273-.273.423-2.914 1.547-5.869 2.752-7.242 2.659-8.874-.508-8.874-1.973 0-2.879.793-4 3.5"/></svg>