<svg xmlns="http://www.w3.org/2000/svg" width="1200" height="630" viewBox="0 0 1200 630"><path fill-rule="evenodd" d="M0 315.001v315.001l600.25-.251 600.25-.251.252-314.75.251-314.75H0zm.494.499c0 173.25.115 244.274.256 157.831s.141-228.193 0-315S.494 142.25.494 315.5M451 197.483c-8.184 1.823-19.129 6.044-22.455 8.66-2.246 1.767-2.545 2.743-2.545 8.307 0 9.22.616 9.441 13.673 4.91 9.37-3.252 12.31-3.812 21.847-4.159 13.597-.496 18.63.713 23.584 5.668 4.38 4.38 5.66 8.492 6.548 21.039l.665 9.408-2.408-.657c-1.325-.361-7.733-1.415-14.241-2.343-9.581-1.365-13.385-1.485-20-.63-14.831 1.918-25.329 7.558-31.552 16.952-4.298 6.489-5.565 11.385-5.528 21.362.026 7.106.482 9.484 2.778 14.5 5.963 13.024 16.958 19.5 33.105 19.5 13.009 0 23.494-4.003 33.567-12.815 3.322-2.906 5.465-4.175 5.727-3.391.896 2.689 6.869 10.66 9.351 12.479 2.399 1.758 2.855 1.792 5.5.412 5.772-3.014 11.384-7.731 11.384-9.57 0-1.031-1.237-4.515-2.75-7.744l-2.75-5.871-.563-33c-.536-31.368-.682-33.346-2.95-40-3.305-9.697-11.574-18.142-20.987-21.435-8.435-2.951-29.095-3.789-39-1.582m274.013.058c-23.359 6.554-34.539 26.418-26.018 46.225 2.451 5.698 9.459 12.895 15.613 16.033 2.141 1.092 10.417 4.067 18.392 6.611 22.133 7.06 26.565 10.363 26.426 19.69-.089 6.012-2.338 9.412-8.515 12.87-3.633 2.033-6.12 2.539-14.097 2.863-11.644.474-20.591-.951-30.876-4.917-9.983-3.85-10.938-3.448-10.938 4.609 0 3.471.281 7.044.625 7.94.957 2.495 9.436 6.346 19.132 8.688 12.28 2.967 29.055 2.908 38.743-.135 12.668-3.98 20.485-10.441 25.371-20.972 2.093-4.513 2.57-7.036 2.559-13.546-.017-9.607-2.226-15.296-8.295-21.365-5.37-5.37-10.73-7.95-28.135-13.543-16.831-5.408-21.545-7.804-24.809-12.607-1.852-2.727-2.267-4.407-1.904-7.721.61-5.569 2.809-8.74 7.978-11.501 3.74-1.999 5.637-2.258 16.235-2.221 10.829.037 12.866.347 20.87 3.172 4.879 1.722 9.492 2.893 10.25 2.601.987-.378 1.38-2.477 1.38-7.371 0-6.544-.141-6.95-3.25-9.321-7.95-6.062-34.496-9.517-46.737-6.082m-197.763 2.121c-.687.278-1.25 1.615-1.25 2.971 0 2.613 31.407 107.365 33.23 110.833.588 1.119 1.565 2.365 2.17 2.769 1.915 1.278 19.074.878 20.799-.485 2.139-1.692 2.434-2.769 12.794-46.75 4.989-21.175 9.412-39.339 9.829-40.364.506-1.243 3.346 8.915 8.525 30.5 12.847 53.537 13.271 55.111 15.223 56.539 1.192.872 4.944 1.325 10.966 1.325 7.746 0 9.42-.294 10.886-1.913 1.616-1.786 35.539-108.743 35.566-112.137.023-2.993-2.308-3.95-9.623-3.95-8.892 0-11.731 1.006-13.159 4.666-.608 1.559-5.654 20.609-11.214 42.334-5.559 21.725-10.598 41.3-11.197 43.5l-1.089 4-1.262-5c-.694-2.75-5.454-23-10.579-45-7.522-32.293-9.746-40.433-11.545-42.25-1.916-1.934-3.279-2.25-9.709-2.25-10.397 0-12.201.869-13.916 6.705-.775 2.637-5.622 22.873-10.77 44.969-5.149 22.096-9.656 39.992-10.016 39.77-.36-.223-5.517-19.864-11.46-43.648-8.69-34.776-11.252-43.689-13.082-45.52-2.018-2.018-3.216-2.267-10.572-2.197-4.562.043-8.857.306-9.545.583m-65.75 64.011c-9.42 1.407-15.072 4.666-18.036 10.396-1.867 3.611-1.912 14.923-.077 19.314.763 1.826 2.9 4.399 4.75 5.718 2.986 2.13 4.429 2.398 12.863 2.388 10.659-.011 15.762-1.707 22.233-7.389 5.093-4.471 7.48-10.164 8.278-19.744l.678-8.143-6.844-1.067c-8.704-1.356-19.971-2.052-23.845-1.473m295.039 81.371c-11.5 1.807-25.919 7.279-30.789 11.683-2.034 1.84-2.309 4.861-.5 5.501.688.243 6.875-.179 13.75-.938 16.848-1.86 33.282-1.215 36.857 1.447 5.392 4.013 3.584 17.683-5.421 40.983-2.478 6.411-4.279 12.247-4.002 12.968.965 2.514 4.269 1.28 8.963-3.348 12.654-12.475 21.395-32.773 22.347-51.896.584-11.734.187-12.474-8.04-14.978-6.289-1.914-24.944-2.714-33.165-1.422m-353.872 7.623c-3.139 3.138 2.421 9.104 22.613 24.263 41.881 31.442 93.534 51.022 148.097 56.14 17.322 1.624 50.123.68 67.123-1.932 22.4-3.441 42.968-8.653 62.497-15.836 22.089-8.125 58.106-28.454 60.072-33.907.437-1.212.249-3.122-.443-4.5-1.902-3.789-7.887-3.038-23.126 2.901-63.04 24.57-135.382 31.348-204.5 19.162-39.23-6.917-75.825-19.407-112.854-38.517-16.046-8.282-18.137-9.116-19.479-7.774"/></svg>