<svg xmlns="http://www.w3.org/2000/svg" width="3000" height="3000" viewBox="0 0 3000 3000"><path fill-rule="evenodd" d="M1028.265 204.982c-21.527 2.411-40.265 9.293-58.962 21.655-20.05 13.257-38.526 35.764-47.232 57.538C920.46 288.204 797.349 652.4 648.49 1093.5c-328.07 972.142-515.69 1528.288-517.843 1535-5.258 16.39-6.863 37.5-4.214 55.427 4.264 28.861 16.739 53.503 37.5 74.073 18.428 18.259 38.996 29.179 66.379 35.244l10.188 2.256h330c312.644 0 330.498-.094 339.461-1.786 17.051-3.22 37.02-11.185 49.864-19.89 19.164-12.988 35.273-31.656 45.154-52.324 2.617-5.474 150.388-440.475 162.17-477.387.273-.858 104.349 95.597 272.897 252.915A2787363 2787363 0 0 0 1720 2758.312c24.76 23.047 50.459 34.245 84.5 36.819 11.032.834 139.191.985 484.5.572 419.593-.503 470.422-.728 478.171-2.124 26.25-4.728 50.749-17.369 68.855-35.528 19.154-19.21 30.499-40.03 36.138-66.317 3.117-14.533 3.081-38.08-.08-52.048-1.221-5.398-41.824-127.123-90.227-270.5s-118.311-350.461-155.35-460.186-143.388-424.725-236.33-700a7863357 7863357 0 0 1-240.194-711.5c-50.705-150.248-72.593-213.816-76.018-220.781-18.226-37.058-54.194-63.526-95.624-70.365-8.966-1.48-51.303-1.65-476.341-1.903-256.575-.153-469.756.086-473.735.531m469.481 1061.073c-11.854 34.389-102.769 303.137-184.69 545.945l-23.785 70.5 210.529.252c115.791.139 210.667.114 210.837-.055.169-.17-8.64-26.833-19.575-59.253-96.312-285.533-189.09-560.386-189.838-562.389-.822-2.202-1.167-1.706-3.478 5"/></svg>