<svg xmlns="http://www.w3.org/2000/svg" width="1200" height="630" viewBox="0 0 1200 630"><path fill-rule="evenodd" d="M578.233 125.105c-33.03 3.84-67.929 18.443-93.787 39.243-11.127 8.951-28.617 27.42-36.666 38.719-8.789 12.336-18.614 31.514-23.661 46.183-3.314 9.634-3.759 11.75-2.471 11.75.865 0-1.277 2.098-4.76 4.661-15.363 11.31-30.248 29.257-39.357 47.453-9.612 19.202-13.82 37.143-13.811 58.886.014 35.501 12.301 66.256 36.642 91.717 20.12 21.046 43.944 34.202 72.456 40.013 8.019 1.635 17.807 1.77 128.182 1.77 111.671 0 120.057-.119 128-1.816 54.661-11.676 95.202-52.228 106.656-106.684 2.465-11.715 2.493-38.082.055-50.182-6.508-32.291-22.985-59.339-49.243-80.834-6.092-4.987-7.199-6.406-8.284-10.62-2.119-8.227-11.444-29.353-17.449-39.531-25.276-42.844-68.063-74.702-115.978-86.355-20.667-5.026-46.378-6.716-66.524-4.373m6.267 82.925c-19.34 2.986-39.692 12.921-54.437 26.572-6.529 6.045-7.25 7.398-3.94 7.398 3.544 0 22.335 6.678 31.1 11.051 15.533 7.751 30.044 18.848 40.422 30.911l6.419 7.462-29.276 29.288C558.687 336.82 545.236 350 544.898 350c-.337 0-2.261-2.669-4.275-5.932-14.505-23.499-47.587-30.584-71.195-15.246-15.016 9.755-23.471 24.962-23.732 42.678-.337 22.936 13.812 42.567 35.32 49.005l8.336 2.495h110.614c121.841 0 116.102.279 128.33-6.238 7.616-4.06 16.406-12.85 20.466-20.466 15.983-29.989-.138-66.27-33.222-74.766-3.278-.841-7.216-1.53-8.75-1.53-2.478 0-2.792-.364-2.806-3.25-.087-17.864-3.846-36.873-9.957-50.351-12.4-27.348-38.383-48.32-70.027-56.521-8.738-2.265-30.274-3.272-39.5-1.848"/></svg>