<svg xmlns="http://www.w3.org/2000/svg" width="256" height="256" viewBox="0 0 256 256"><path fill-rule="evenodd" d="M126.683 2.65c-.376.376-.683 1.554-.683 2.617 0 1.136-4.645 6.547-11.25 13.105C93.107 39.864 80.153 63.98 73.894 94.435c-2.648 12.886-3.576 34.472-1.958 45.541 4.406 30.13 19.858 57.124 45.821 80.042 5.958 5.26 6.32 5.845 7.729 12.5.814 3.84 1.487 10.192 1.497 14.115.016 6.546.203 7.183 2.267 7.737 1.238.331 2.535.609 2.884.616s.813-5.949 1.032-13.236c.433-14.433 1.554-17.946 6.72-21.05 4.313-2.593 17.57-16.678 23.355-24.815 10.35-14.557 17.44-31.895 20.396-49.876 2.321-14.119 1.37-38.397-1.978-50.509-8.673-31.378-18.747-49.352-41.048-73.243-3.238-3.469-7.543-9.454-9.567-13.299s-3.985-6.683-4.361-6.308"/></svg>