<svg xmlns="http://www.w3.org/2000/svg" width="140" height="150" viewBox="0 0 140 150"><path fill-rule="evenodd" d="M57.75 8.814C3.251 15.265 2 15.462 2 17.582c0 1.193 3.15 27.899 7 59.347s7 57.648 7 58.223c0 1.206 11.958.156 13.371-1.174.479-.451-.983-2.638-3.25-4.859-2.544-2.494-4.121-4.951-4.121-6.422 0-3.861 4.106-10.132 10-15.272 3.025-2.639 6.781-6.401 8.346-8.361 2.577-3.226 2.81-4.151 2.457-9.754-.369-5.861-.641-6.435-5.097-10.765-2.588-2.516-4.736-4.23-4.773-3.81-.128 1.447-2.784-9.24-3.422-13.771l-.64-4.535h5.522c7.34 0 10.607-2.788 10.607-9.052 0-4.528-4.002-18.179-6.56-22.377l-1.523-2.5.693 2.5c2.733 9.856 3.368 13.013 3.378 16.816.015 5.347-1.209 7.73-4.968 9.674-4.051 2.095-5.842 1.906-10.137-1.071-5.375-3.725-9.2-9.882-8.568-13.791.969-5.997 1.362-6.948 3.627-8.782C22.196 26.831 22.947 26 22.611 26c-1.473 0 3.88-4.307 6.945-5.588 5.018-2.096 8.156-1.782 9.98 1.002.869 1.327 3.158 3.162 5.084 4.076 4.015 1.905 7.236 1.191 13.595-3.015 3.03-2.004 3.595-2.136 3.063-.716-.592 1.578-.477 1.601 1.227.241 1.033-.825 1.596-1.027 1.25-.448-.41.687 1.815 1.135 6.424 1.294l7.052.242 4.637-5.044c5.799-6.308 8.447-6.561 14.207-1.357 4.521 4.084 8.925 11.871 8.925 15.78 0 7.579-11.494-3.682-13.479-13.206-.371-1.781-1.085-3.491-1.586-3.801-1.039-.642-.257 7.489 1.149 11.939 1.607 5.087 1.218 6.225-1.334 3.9-1.237-1.127-3.375-2.586-4.75-3.242-1.959-.934-1.676-.406 1.306 2.44 7.06 6.738 10.359 11.92 11.088 17.416.462 3.48 1.959 7.113 4.644 11.267 4.403 6.812 5.134 12.08 2.538 18.293-1.124 2.689-2.164 3.547-4.935 4.067-4.35.816-5.603.107-4.933-2.791l.52-2.249-1.66 2.235c-2.683 3.611-9.814 7.266-14.156 7.255-4.023-.01-12.313-3.359-17.558-7.094-1.633-1.163-3.281-1.801-3.662-1.419-.655.658.425 1.714 7.177 7.01l2.869 2.25-4.548.682c-4.444.667-4.537.756-4.069 3.882 2.668 17.809 3.983 32.281 2.993 32.934-1.975 1.302-2.688.832-4.188-2.757-3.463-8.289-11.007-13.62-18.926-13.374-2.822.088-2.754.171 1.135 1.398 6.357 2.005 8.193 3.265 10.817 7.422 3.875 6.138 5.855 14.222 4.613 18.833-1.621 6.02-5.182 8.747-11.395 8.724-2.844-.01-6.07-.409-7.17-.887-1.56-.677-1.389-.233.775 2.019 2.384 2.481 3.509 2.879 8 2.833 8.652-.09 13.725-5.35 13.725-14.23 0-3.082.433-4.096 1.914-4.483 2.078-.544 3.048 1.523 3.072 6.548.008 1.625.684 3.039 1.624 3.399 1.259.484 70.389-7.308 71.038-8.007.089-.095-1.139-12.773-2.728-28.173s-2.896-28.338-2.905-28.75S131.1 74 130 74s-1.998-.562-1.995-1.25c.009-2.501-6.111-66.313-6.571-68.5-.393-1.873-1.098-2.232-4.203-2.143-2.052.059-28.818 3.077-59.481 6.707m30.917 32.853C86.186 44.148 89.776 51 93.557 51 95.605 51 96 50.515 96 48c0-4.412-4.966-8.701-7.333-6.333M61.5 46.155c-4.424 2.42-5.767 6.731-3.192 10.252 1.174 1.606 1.762 1.659 5.75.522 6.008-1.713 6.294-2.095 5.506-7.354-.621-4.14-.942-4.572-3.375-4.545-1.479.017-3.589.523-4.689 1.125m28.703 18.976c-1.813.523-3.576 1.678-3.917 2.567-.921 2.4 4.102 6.302 8.112 6.302 2.707 0 3.607-.595 5.102-3.369.998-1.854 1.533-4.104 1.188-5-.704-1.835-5.123-2.046-10.485-.5M107 83.172c-10.692 2.035-16.12 3.531-17.5 4.822-3.613 3.383-7.188 4.149-13.384 2.869-3.116-.643-7.249-.873-9.185-.51l-3.519.66 2.584 21.95c1.42 12.072 2.889 22.255 3.263 22.629.557.557 40.618-6.189 57.782-9.731l4.542-.937-1.216-15.212c-2.532-31.698-2.185-29.727-5.202-29.601-1.466.062-9.64 1.439-18.165 3.061m12.987 12.854c-2.419 4.936-4.649 8.974-4.956 8.974s-2.896-1.575-5.755-3.5-5.434-3.5-5.723-3.5c-.29 0-2.618 3.6-5.175 8-2.792 4.806-5.293 7.996-6.263 7.989-.888-.006-3.675-.636-6.193-1.4l-4.578-1.39-5.172 8.212c-5.716 9.076-6.536 12.602-2.922 12.568 3.174-.029 53.675-9.571 54.378-10.274.524-.524-2.356-33.766-2.979-34.389-.145-.145-2.243 3.775-4.662 8.71"/></svg>