<svg xmlns="http://www.w3.org/2000/svg" width="540" height="557" viewBox="0 0 540 557"><path fill-rule="evenodd" d="M369.5.616c-9.454.969-24.789 3.622-35 6.057-10.365 2.471-11.491 2.553-19.5 1.409-15.485-2.211-43.114-2.535-56-.656-12.715 1.854-29.069 6.954-38.898 12.131l-6.398 3.369-11.602-3.42C133.626-.682 76.579 4.756 41.301 34.834 14.265 57.885.726 93.706.797 142c.036 24.628 4.794 54.253 15.82 98.5 25.971 104.226 55.184 159.69 90.951 172.677 8.914 3.237 21.674 3.02 30.825-.525 3.792-1.469 8.985-4.173 11.541-6.009l4.647-3.339 4.46 3.847c2.452 2.117 7.609 5.405 11.459 7.307 19.587 9.681 52.458 11.251 72.896 3.483 2.807-1.067 5.17-1.94 5.25-1.94.08-.001.433 6.636.784 14.749 1.758 40.63 3.863 56.925 9.622 74.504 9.449 28.842 22.627 43.903 43.88 50.15 8.685 2.552 29.004 2.159 42.114-.815 33.095-7.507 52.364-22.16 65.408-49.737 4.997-10.566 9.538-25.78 11.99-40.171 1.991-11.691 4.507-36.807 4.535-45.284.012-3.357.303-8.804.648-12.105l.628-6.002 15.622-.603c26.05-1.006 45.668-6.196 63.166-16.713 16.511-9.923 25.125-18.075 30.091-28.474 5.769-12.083 2.917-26.815-6.519-33.675-9.873-7.177-16.498-7.956-37.573-4.419-8.503 1.427-16.975 2.594-18.827 2.594h-3.368l4.111-7.25c41.851-73.817 67.807-163.303 62.188-214.401-2.323-21.126-8.549-33.479-25.342-50.278C487.171 23.429 458.987 9.026 422.5 2.435c-8.69-1.57-43.701-2.771-53-1.819m3.5 14.981c-15.376 1.794-28.169 4.027-37.967 6.628-13.274 3.523-13.535 3.536-25.533 1.315-4.95-.916-15.075-1.922-22.5-2.236-23.523-.993-40.28 2.332-59.762 11.857l-12.263 5.996-9.237-3.047c-28.997-9.563-64.695-15.145-87.567-13.692-44.359 2.816-73.119 19.893-89.168 52.944C19.706 94.51 16.577 111.051 16.588 141c.008 19.849.257 22.881 3.246 39.487C31.72 246.517 49.877 307.558 69.513 347.5c13.122 26.692 24.495 40.933 38.002 47.582 6.059 2.983 7.9 3.415 14.464 3.397 13.532-.037 19.578-4.116 38.247-25.808 24.348-28.288 35.121-39.754 36.737-39.095 9.359 3.819 15.529 5.683 22.271 6.729l8.031 1.247-6.148 7.642c-7.495 9.317-10.175 10.729-29.251 15.408-21.627 5.305-28.199 9.703-28.199 18.87 0 5.943 3.79 10.727 12.116 15.296 12.092 6.636 37.175 9.272 53.52 5.626 8.808-1.964 21.646-7.865 27.697-12.73l4.5-3.618.619 34.227c1.09 60.296 3.72 76.57 15.404 95.316 11.192 17.956 29.148 26.694 51.475 25.049 21.013-1.549 44.176-10.775 55.513-22.112 8.384-8.384 14.597-20.831 17.982-36.026 2.512-11.273 7.642-47.587 11.699-82.821l2.283-19.821 2.512.622c1.382.343 8.597.879 16.033 1.193 20.871.878 41.566-2.919 56.301-10.33 10.378-5.22 17.219-9.795 23.427-15.666 9.39-8.881 11.683-16.634 6.679-22.581-3.983-4.734-8.866-5.6-20.354-3.611-17.769 3.077-21.541 3.475-33.141 3.495-11.286.02-21.035-1.72-22.447-4.005-.331-.534 2.284-5.585 5.811-11.224 43.929-70.227 74.895-167.215 69.699-218.298-2.077-20.421-6.325-28.671-23.186-45.031C470.049 29.487 436.348 16.329 393 15.503c-9.075-.173-18.075-.13-20 .094m1.5 15.522c-6.6.458-15.15 1.414-19 2.125l-7 1.292 9 4.861c16.438 8.878 26.34 16.384 41 31.074 19.8 19.841 32.839 39.204 42.511 63.128 4.205 10.4 4.425 11.452 4.793 22.901.28 8.687-.192 15.957-1.709 26.333-3.417 23.371-3.577 31.257-1.089 53.667 1.668 15.025 2.091 23.358 1.703 33.5-.591 15.424-2.246 22.85-7.735 34.701-3.147 6.795-3.563 8.395-2.429 9.336 1.571 1.304 4.495-2.872 14.594-20.834 25.5-45.357 45.892-100.776 53.982-146.703 1.832-10.401 2.298-16.799 2.334-32 .053-22.227-1.016-27.212-7.647-35.664-17.719-22.586-44.265-38.561-74.709-44.958-7.735-1.625-31.846-4.135-35.599-3.705-.55.063-6.4.489-13 .946m-104 5.587c-46.23 3.196-78.468 35.416-91.846 91.794-2.44 10.285-5.717 31.505-5.003 32.402.176.221 4.28-1.438 9.121-3.687 35.344-16.422 65.267-11.909 77.153 11.636 6.351 12.581 10.61 42.644 9.79 69.104-.63 20.336-2.82 30.992-9.77 47.545-7.19 17.125-14.946 37.254-15.584 40.446-.608 3.039-.589 3.054 3.836 3.054 12.85 0 25.943 11.117 28.266 24 .347 1.925.784 24.65.971 50.5.487 67.452 2.175 84.33 10.012 100.139 5.46 11.013 12.451 18.037 21.307 21.406 16.982 6.46 51.034-1.701 64.883-15.55 9.059-9.059 12.823-19.081 16.779-44.677 3.645-23.578 10.308-78.515 11.934-98.385 1.593-19.477 2.978-23.842 9.612-30.279 2.285-2.218 6.154-4.796 8.597-5.729s4.43-1.973 4.416-2.311c-.015-.338-2.943-4.439-6.506-9.114s-8.856-13.225-11.76-19-9.474-18.258-14.601-27.741c-23.847-44.105-32.567-73.854-27.983-95.46 3.03-14.279 14.153-25.394 29.893-29.872 2.466-.701 11.295-1.534 19.621-1.851l15.137-.576-3.775-8.752c-15.283-35.434-44.821-67.572-76.947-83.72-9.481-4.766-21.917-9.159-33.553-11.852-8.648-2.002-29.759-4.339-36-3.985-1.65.093-5.25.325-8 .515M107 38.641c-9.066 1.143-21.435 4.958-30.924 9.536-8.932 4.309-11.581 6.195-18.5 13.176C44.679 74.364 37.343 89.908 33.438 112.5c-2.576 14.9-2.366 42.099.454 59C46.451 246.773 71.936 327.029 93.749 360c15.222 23.008 27.949 28.798 40.218 18.296 2.241-1.918 10.532-10.982 18.425-20.142 7.892-9.16 17.783-20.37 21.979-24.911s7.629-8.616 7.629-9.054-1.619-2.347-3.597-4.243c-8.894-8.52-17.599-24.085-20.857-37.294-2.423-9.825-3.003-22.72-1.445-32.152.929-5.633 1.356-20.425 1.44-50 .126-44.122.703-51.805 5.533-73.735 5.989-27.191 17.326-51.422 32.34-69.12l5.656-6.668-2.785-1.07c-4.777-1.837-28.333-7.631-38.285-9.417-9.213-1.654-44.728-2.893-53-1.849m298.5 122.057c-12.633 1.675-20.303 6.156-24.211 14.144-7.355 15.032-.075 43.384 21.736 84.658 4.941 9.35 11.334 21.613 14.207 27.25s5.53 10.25 5.904 10.25c1.485 0 5.004-13.052 6.066-22.5.943-8.384.832-12.667-.682-26.5-2.879-26.302-3.071-43.956-.664-61 1.126-7.975 2.181-16.975 2.346-20l.298-5.5-5-.662c-5.39-.714-15.157-.783-20-.14m-198.302 4.325c-9.86 2.583-22.683 7.907-28.99 12.036l-5.184 3.393.602 20.524c.382 12.998.162 25.291-.599 33.524-3.261 35.264-2.612 42.667 5.122 58.442 8.737 17.824 27.718 31.279 45.581 32.313l4.229.245 4.357-12.5c2.396-6.875 6.887-18.393 9.98-25.595 10.383-24.179 13.429-39.61 12.32-62.405-.699-14.379-3.717-34.427-6.667-44.291-4.672-15.621-19.384-21.284-40.751-15.686m189.315 4.484c-3.895 1.388-6.513 3.784-6.513 5.962 0 2.202 2.963 5.211 6.864 6.97 5.617 2.532 10.479 1.453 15.337-3.404 4.317-4.318 4.8-7.221 1.576-9.478-2.796-1.959-11.828-1.985-17.264-.05m-180.763 4.065c-4.585 2.487-2.98 8.313 3.747 13.605 2.371 1.864 4.18 2.323 9.163 2.323 5.501 0 6.557-.333 9.263-2.926 5.612-5.377 4.896-9.391-2.254-12.637-5.145-2.336-15.921-2.534-19.919-.365m214.062 170.085c-8.1 2.362-11.793 8.007-11.806 18.046-.006 4 .175 4.255 3.744 5.279 10.415 2.987 31.644 2.121 47.75-1.949 4.4-1.112 11.6-3.818 16-6.014 8.027-4.005 18.073-10.779 17.233-11.619-.247-.247-4.9.3-10.341 1.216-12.459 2.096-34.927 2.372-42.392.519-3.025-.751-7.797-2.584-10.604-4.075-4.817-2.557-5.355-2.636-9.584-1.403m-184.649 1.942c-1.255.879-5.691 5.716-9.858 10.75-12.694 15.334-15.74 17.151-38.174 22.775-8.506 2.132-15.714 4.126-16.019 4.431-1.419 1.419 8.195 4.782 18.493 6.468 13.954 2.285 27.207.534 39.307-5.194 8.675-4.107 21.625-16.846 22.644-22.276 1.275-6.798-3.367-15.022-9.871-17.486-3.634-1.377-3.819-1.362-6.522.532"/></svg>