<svg xmlns="http://www.w3.org/2000/svg" width="256" height="256" viewBox="0 0 256 256"><path fill-rule="evenodd" d="M120 6.091c-10.678 1.837-18.1 6.558-52.5 33.397-36.752 28.674-45.362 36.44-48.507 43.75-2.005 4.661-2.088 6.256-1.797 34.705l.304 29.818 3.923 5.694c2.938 4.264 9.292 9.976 25.323 22.764 11.771 9.39 20.942 17.356 20.38 17.703-.647.4-.68 1.17-.089 2.104.513.811.932 2.149.932 2.974 0 1.333-.114 1.333-1.028 0-.811-1.183-.961-.972-.711 1 .175 1.375.853 2.393 1.508 2.262.68-.136.945.4.619 1.25-.314.818-.055 1.488.575 1.488.794 0 .75.429-.143 1.395-.709.767-1.739 1.151-2.289.853s-.437.065.25.805c1.558 1.679 1.655 4.315.124 3.369-.772-.477-.851-.21-.25.847.482.849 4.926 4.794 9.876 8.767s9.45 7.743 10 8.378c2.124 2.45 16.131 12.867 19.862 14.771 2.158 1.1 5.434 2.189 7.281 2.418 3.842.476 3.621 1.246 3.399-11.853l-.148-8.75 10.303-.001 10.303-.001V246.5l3.17.307c6.439.625 10.343-2.006 58.83-39.642 28.844-22.39 33.693-26.801 36.996-33.665 2.399-4.985 2.407-5.12 2.705-44.5.238-31.479.02-40.312-1.073-43.5-2.989-8.712-7.913-13.331-44.705-41.941-19.706-15.323-37.853-29.144-40.327-30.713C143.341 6.66 131.154 4.172 120 6.091m3.861 3.942c3.034 2.528 4.388 2.479 6.734-.244l1.905-2.211-2.835 1.79c-2.587 1.633-2.986 1.651-4.578.21-.96-.868-2.159-1.563-2.666-1.545-.506.019.141.919 1.44 2m-4.361 7.436c-1.65 1.352-2.516 2.475-1.924 2.495.591.02 2.132-1.089 3.424-2.464 2.985-3.177 2.354-3.19-1.5-.031m12.5-1.584c0 .487 1.238 1.677 2.75 2.644l2.75 1.759-2.424-2.644c-2.622-2.859-3.076-3.119-3.076-1.759m-22.5 9.673c-1.864 1.583-2.212 2.17-.918 1.549 1.859-.891 5.23-4.115 4.29-4.102-.204.003-1.722 1.151-3.372 2.553M143 25c1.375 1.076 2.898 1.966 3.385 1.978s-.259-.878-1.658-1.978c-1.398-1.1-2.921-1.99-3.385-1.978s.283.902 1.658 1.978M83 57.402C49.399 84.143 43.5 89.221 43.5 91.407c0 2.183 4.968 6.483 33 28.563 26.504 20.876 33.595 25.996 36.025 26.011 2.257.014 5.176-1.711 11.5-6.796 4.661-3.748 21.525-17.095 37.475-29.66 33.963-26.755 34.939-27.618 34.073-30.151-.352-1.031-15.447-13.349-33.546-27.374-25.9-20.07-33.612-25.557-36.217-25.766-2.988-.241-7.147 2.787-42.81 31.168m.666 1.198C59.83 77.538 44.014 90.767 44.196 91.615c.461 2.142 66.008 53.345 68.304 53.357 1.728.008 73.922-56.033 80.265-62.307 1.89-1.869 2.056-2.507 1-3.847C190.739 74.978 127.641 27 125.616 27c-1.351 0-17.268 11.99-41.95 31.6m16.195-25.633c-1.299 1.081-1.868 1.981-1.266 2s1.91-.867 2.905-1.967c2.316-2.559 1.415-2.577-1.639-.033m53.412.033c1.398 1.1 2.921 1.99 3.385 1.978 1.092-.029-3.877-3.926-5.043-3.956-.487-.012.259.878 1.658 1.978m8.645 6.391c.78.945 2.355 2.217 3.5 2.827 1.894 1.01 1.954.955.664-.609-.78-.945-2.355-2.217-3.5-2.827-1.894-1.01-1.954-.955-.664.609m-72.057 1.576c-1.299 1.081-1.868 1.981-1.266 2S90.505 42.1 91.5 41c2.316-2.559 1.415-2.577-1.639-.033M80.5 48.469c-1.65 1.352-2.516 2.475-1.924 2.495.591.02 2.132-1.089 3.424-2.464 2.985-3.177 2.354-3.19-1.5-.031m90.5-2.084c0 .212 1.238 1.181 2.75 2.155l2.75 1.77-1.905-2.155c-1.686-1.907-3.595-2.847-3.595-1.77m10 7.5c0 .487 1.238 1.677 2.75 2.644l2.75 1.759-2.424-2.644c-2.622-2.859-3.076-3.119-3.076-1.759M70.861 55.967c-1.299 1.081-1.868 1.981-1.266 2S71.505 57.1 72.5 56c2.316-2.559 1.415-2.577-1.639-.033M192.5 63.415c1.65 1.323 3.176 2.232 3.392 2.02.54-.531-4.157-4.362-5.392-4.397-.55-.015.35 1.054 2 2.377m-131.639.552c-1.299 1.081-1.868 1.981-1.266 2S61.505 65.1 62.5 64c2.316-2.559 1.415-2.577-1.639-.033M51.5 71.558c-1.864 1.583-2.212 2.17-.918 1.549 1.859-.891 5.23-4.115 4.29-4.102-.204.003-1.722 1.151-3.372 2.553M202.273 71c1.398 1.1 2.921 1.99 3.385 1.978 1.092-.029-3.877-3.926-5.043-3.956-.487-.012.259.878 1.658 1.978m9.947 7.547c1.496 1.566 2.984 2.582 3.307 2.259.324-.323-.9-1.604-2.719-2.847L209.5 75.7zM41.306 79.56c-2.043 1.865-2.24 2.287-.724 1.555C42.657 80.113 45.756 77 44.678 77c-.311 0-1.829 1.152-3.372 2.56M220 84.397c0 .257 1.463 1.492 3.25 2.746 2.306 1.617 2.838 1.766 1.832.513-1.431-1.782-5.082-4.124-5.082-3.259m-188.139 2.57c-1.299 1.081-1.868 1.981-1.266 2S32.505 88.1 33.5 87c2.316-2.559 1.415-2.577-1.639-.033M20 88.56c0 .341 1.006 1.434 2.235 2.429l2.235 1.81-2.485 2.067c-1.367 1.137-2.001 2.082-1.409 2.101.591.018 2.053-1.008 3.248-2.28l2.173-2.313-2.998-2.217C21.349 88.938 20 88.219 20 88.56m212 1.476-2.5 1.991 2.361 1.987c1.298 1.092 2.811 1.986 3.361 1.986s-.063-.9-1.361-2l-2.361-2 2.361-2c3.069-2.6 1.408-2.568-1.861.036M30.031 96.727c.046 1.132 4.969 4.535 4.969 3.435 0-.513-1.125-1.669-2.5-2.57s-2.486-1.29-2.469-.865M222 98c-1.375 1.076-2.121 1.966-1.658 1.978s1.987-.878 3.385-1.978c1.399-1.1 2.145-1.99 1.658-1.978s-2.01.902-3.385 1.978m-9.5 7.469c-1.65 1.352-2.516 2.475-1.924 2.495.591.02 2.132-1.089 3.424-2.464 2.985-3.177 2.354-3.19-1.5-.031M41.273 106c1.398 1.1 2.921 1.99 3.385 1.978 1.092-.029-3.877-3.926-5.043-3.956-.487-.012.259.878 1.658 1.978m7.758 5.682c.043 1.097 4.975 4.646 5.595 4.025.269-.269-.887-1.469-2.568-2.666s-3.044-1.809-3.027-1.359m153.984 1.272c-1.367 1.05-2.231 2.163-1.921 2.474.311.31 1.62-.559 2.91-1.932 2.788-2.968 2.427-3.167-.989-.542m-142.61 7.9c1.048 1.181 2.312 2.146 2.809 2.146 1.408 0-.089-1.865-2.52-3.14-2.179-1.143-2.181-1.136-.289.994m132.456.113c-1.299 1.081-1.868 1.981-1.266 2s1.91-.867 2.905-1.967c2.316-2.559 1.415-2.577-1.639-.033m-122.456 7.887c1.048 1.181 2.312 2.146 2.809 2.146 1.408 0-.089-1.865-2.52-3.14-2.179-1.143-2.181-1.136-.289.994m112.456.113c-1.299 1.081-1.868 1.981-1.266 2s1.91-.867 2.905-1.967c2.316-2.559 1.415-2.577-1.639-.033m-103.943 6.424c.78.945 2.355 2.217 3.5 2.827 1.894 1.01 1.954.955.664-.609-.78-.945-2.355-2.217-3.5-2.827-1.894-1.01-1.954-.955-.664.609m94.388 1.077c-1.543 1.358-2.322 2.483-1.73 2.5.591.018 2.132-1.093 3.424-2.468 3.019-3.214 1.946-3.234-1.694-.032m-84.388 6.923c.78.945 2.355 2.217 3.5 2.827 1.894 1.01 1.954.955.664-.609-.78-.945-2.355-2.217-3.5-2.827-1.894-1.01-1.954-.955-.664.609m74.388 1.169c-2.043 1.865-2.24 2.287-.724 1.555 2.075-1.002 5.174-4.115 4.096-4.115-.311 0-1.829 1.152-3.372 2.56m-64.809 6.435c.338.547 1.602 1.512 2.809 2.145 2.179 1.143 2.181 1.136.289-.994-1.909-2.15-4.254-3.021-3.098-1.151m55.364.972c-1.299 1.081-1.868 1.981-1.266 2s1.91-.867 2.905-1.967c2.316-2.559 1.415-2.577-1.639-.033M108 158.385c0 .212 1.237 1.181 2.75 2.155l2.75 1.77-1.905-2.155c-1.686-1.907-3.595-2.847-3.595-1.77m35.405 1.761c-1.892 2.13-1.89 2.137.289.994 2.431-1.275 3.928-3.14 2.52-3.14-.497 0-1.761.965-2.809 2.146M117 165.432c0 .237 1.463 1.442 3.25 2.677l3.25 2.246-2.424-2.677c-2.162-2.388-4.076-3.443-4.076-2.246m17.306 2.128c-2.043 1.865-2.24 2.287-.724 1.555 2.075-1.002 5.174-4.115 4.096-4.115-.311 0-1.829 1.152-3.372 2.56m-10.382 8.118-2.424 2.677 3.134-2.163 3.134-2.163 2.616 2.058c3.19 2.51 3.518 1.486.366-1.143-3.017-2.517-3.975-2.414-6.826.734M69 194.378c0 .207.787.995 1.75 1.75 1.586 1.243 1.621 1.208.378-.378-1.307-1.666-2.128-2.195-2.128-1.372"/></svg>