<svg xmlns="http://www.w3.org/2000/svg" width="626" height="443" viewBox="0 0 626 443"><path fill-rule="evenodd" d="M432.689 199.25a163 163 0 0 0-1.218 5.291c-.291 1.397-.916 2.302-1.389 2.01s-1.375 4.077-2.004 9.709c-1.27 11.36-1.683 14.296-2.422 17.24-.277 1.1-.537 2.393-.579 2.872-.043.48-.763.304-1.601-.392s-1.747-1.042-2.02-.769-.779 4.162-1.124 8.642c-.346 4.481-1.012 8.147-1.48 8.147-.469 0-.852 3.995-.852 8.878 0 8.105-1.315 14.123-3.577 16.37-.414.412-2.764-.43-5.221-1.87s-4.157-2.114-3.776-1.498c.864 1.399-.67 1.476-2.043.103-1.531-1.531-7.276-2.964-7.891-1.969-.295.476 1.132 2.13 3.171 3.676 2.039 1.545 5.953 4.888 8.699 7.427 4.812 4.452 4.947 4.723 3.761 7.586-.979 2.363-1.78 2.924-3.926 2.747-7.05-.58-20.993-4.861-30.826-9.464-5.978-2.799-14.245-5.988-18.371-7.086-17.027-4.532-47.118-6.328-65.196-3.891-11.788 1.589-37.17 8.176-51.68 13.412-4.703 1.697-24.124 2.28-24.124.724 0-.471-1.463-1.301-3.25-1.845l-3.25-.988 3-1.253c8.436-3.523 15.284-7.633 25.284-15.177 4.162-3.14.77-2.772-6.309.684-3.836 1.872-7.875 3.424-8.975 3.449s-5.6 1.943-10 4.264l-8 4.221.274-11.5c.238-9.991.091-11.268-1.123-9.733-.768.972-1.705 4.49-2.081 7.818-.377 3.328-1.08 7.033-1.564 8.233-.783 1.943-.886 1.832-.943-1.019-.034-1.76-.544-5.442-1.131-8.182-1.036-4.83-1.128-4.93-3.042-3.299-1.7 1.449-1.949 2.822-1.796 9.916.115 5.367-.259 8.76-1.076 9.744-2.207 2.659-12.416 8.018-15.518 8.145-4.473.182-6.64.898-13.002 4.293-3.179 1.696-6.991 3.084-8.472 3.084s-3.03.337-3.443.75c-.412.413-1.162.806-1.666.875s-1.298.181-1.764.25-2.457 1.689-4.426 3.601c-2.428 2.359-4.919 3.691-7.748 4.143-2.497.4-5.423 1.812-7.297 3.524-1.72 1.571-3.721 2.857-4.447 2.857-.725 0-2.298.913-3.495 2.028s-4.612 3.402-7.588 5.081-6.337 3.917-7.47 4.973c-1.874 1.746-3.804 2.393-6.003 2.013-.451-.078-1.607.83-2.57 2.018l-1.749 2.16-2.114-2.688c-2.268-2.883-3.848-11.692-2.928-16.329.3-1.516 1.545-6.806 2.766-11.756 2.08-8.434 2.141-9.646.969-19.281-1.188-9.766-1.334-18.331-.664-38.719.197-5.968-.145-9.89-1.015-11.64-.722-1.452-1.798-5.277-2.392-8.5-1.983-10.756-2.223-11.517-4.358-13.805-2.809-3.011-6.604-4.194-7.734-2.412-.472.746-.88 4.282-.905 7.857-.037 5.229-.261 6.129-1.147 4.603-.606-1.044-1.147-3.614-1.202-5.711-.133-5.054-1.241-2.773-1.996 4.108-.332 3.025-.673 31.825-.759 64-.175 65.566-.385 63.402 7.111 73.428 5.23 6.996 10.37 11.608 18.008 16.157 3.575 2.13 9.496 6.582 13.158 9.894 3.662 3.311 11.762 9.233 18 13.159a21148 21148 0 0 1 26.62 16.791c8.403 5.31 18.753 11.047 23 12.749 17.975 7.206 43.088 3.599 56.222-8.075 1.925-1.711 8-6.458 13.5-10.549s16.3-12.259 24-18.151 16.806-12.032 20.235-13.645c12.803-6.022 26.683-6.028 39.515-.02 3.438 1.61 18.172 11.858 32.742 22.773 35.456 26.56 39.28 28.998 47.89 30.537 10.299 1.841 24.031.8 32.606-2.472 9.653-3.682 18.885-9.522 72.76-46.022 5.956-4.035 14.475-11.158 20.33-17 9.566-9.543 10.16-10.383 11.694-16.526.889-3.56 1.448-6.642 1.241-6.849s-1.484.456-2.838 1.473c-1.774 1.331-2.606 3.107-2.974 6.348-.433 3.819-1.256 5.181-5.433 9-5.312 4.856-13.268 9.741-13.268 8.147 0-.54 2.521-4.056 5.602-7.814s6.228-8.041 6.992-9.518c1.276-2.464 1.221-2.739-.659-3.336-1.884-.598-1.681-1.043 2.522-5.537 4.717-5.042 6.546-8.471 6.539-12.257-.003-1.928-.225-1.822-1.887.904-2.628 4.31-6.875 7.411-10.15 7.411-2.435 0-3.144-.798-5.855-6.592-6.858-14.654-37.78-40.416-63.967-53.293-16.169-7.95-20.236-11.61-21.238-19.115-.33-2.475-2.018-9.818-3.75-16.318-1.732-6.499-3.149-12.76-3.149-13.912s-.658-4.384-1.462-7.182c-.805-2.798-1.845-8.463-2.311-12.588-.657-5.81-1.004-6.88-1.538-4.75M186.75 295.386l-3.75 4.495.051 11.309c.076 16.792 1.472 31.792 3.382 36.31 1.572 3.72 1.771 3.86 2.848 2 1.314-2.267 2.832-47.283 1.832-54.305l-.613-4.305zM79.722 337.074c1.222 1.273 2.474 2.063 2.781 1.756.308-.308-.692-1.349-2.222-2.315l-2.781-1.756z"/></svg>