<svg xmlns="http://www.w3.org/2000/svg" width="256" height="256" viewBox="0 0 256 256"><path fill-rule="evenodd" d="M120.336 7.068C111.642 8.185 101.214 13.356 89 22.605 62.047 43.016 36.922 63.13 30.42 69.5c-9.82 9.622-10.912 11.923-10.916 23-.004 8.053.29 9.5 2.787 13.747 3.709 6.31 11.088 13.447 29.459 28.491C60.138 141.607 67 147.491 67 147.813c0 .323-.54.047-1.2-.613-2.397-2.397-2.8-1.01-2.776 9.55l.024 10.75 9.226 8.035 9.226 8.036.286 10.938c.326 12.448.086 11.996 10.964 20.676l6.25 4.987v10.847c0 9.968.162 10.898 2 11.481 1.1.349 2 1.022 2 1.496 0 1.481 10.295 4.793 18.572 5.973 15.768 2.249 29.856-2.248 46.33-14.79 22.826-17.376 55.046-43.396 58.848-47.522l4.25-4.612v-10.543c0-9.226.285-11.007 2.285-14.272 4.495-7.336 4.614-8.24 5.331-40.648l.698-31.503-3.169-6.436c-4.087-8.303-9.615-13.414-39.194-36.242-30.644-23.65-36.263-27.686-43.451-31.203-9.669-4.733-21.734-6.599-33.164-5.13m3.164 14.133c-4.22.865-15.123 8.497-26.25 18.375-5.792 5.142-6.25 5.855-6.245 9.736.003 2.882.705 5.014 2.25 6.837C95.086 58.309 108.796 69.1 115 73.264c2.095 1.406-4.343-4.648-12.313-11.579-5.167-4.493-6.684-6.424-6.672-8.5l.014-2.685 1.236 2.396c1.612 3.127 4.813 4.248 7.832 2.743 2.768-1.38 3.59-4.107 1.863-6.187-1.477-1.78-7.079-1.908-8.878-.202-1.086 1.031-1.102.899-.093-.75.673-1.1 3.922-4.025 7.22-6.5 3.299-2.475 7.096-5.513 8.439-6.75 1.344-1.237 2.666-2.25 2.938-2.25.597 0 6.333-4.012 8.182-5.724.727-.673 3.19-1.726 5.474-2.341 3.395-.914 4.753-.831 7.455.457 4.345 2.072 4.212 1.333-.258-1.429-4.697-2.903-9.047-3.765-13.939-2.762m-2.952 16.016c-6.46 5.07-11.23 9.389-10.601 9.599.629.209 3.261-1.283 5.848-3.317 2.588-2.034 7.727-6.016 11.422-8.849 6.313-4.841 7.926-6.65 5.93-6.65-.47 0-6.139 4.148-12.599 9.217m13.952 6.489c-4.4 3.597-9.336 7.585-10.97 8.864-1.633 1.278-2.72 2.573-2.416 2.877s5.465-3.304 11.469-8.018c12.961-10.177 13.267-10.455 11.367-10.346-.797.046-5.05 3.026-9.45 6.623m8.5 11.466c-6.325 5.026-10.76 8.876-9.856 8.555C134.816 63.134 156 47.046 156 46.37c0-1.211-2.707.621-13 8.802m-32.755 2.983c-3.031 3.031-.302 7.22 4.344 6.667 3.46-.411 5.326-3.144 3.805-5.572-1.331-2.126-6.432-2.812-8.149-1.095m-44.421 6.633c-4.813 2.515-24.282 17.779-27.395 21.479-4.854 5.769-2.73 10.759 8.071 18.967 3.85 2.926 8.688 6.598 10.75 8.161 6.686 5.068 3.983 2.144-6.204-6.708-9.725-8.45-9.931-8.718-8.923-11.611 1.115-3.199 5.76-8.371 10.396-11.576 1.59-1.1 4.037-3.009 5.437-4.243 6.484-5.717 8.908-7.408 14.728-10.273 6.039-2.973 6.345-3.02 9.372-1.455 4.47 2.311 4.748 1.131.372-1.574-5.065-3.13-11.924-3.612-16.604-1.167m55.926 2.292c-2.478 1.443-2.17 3.599.791 5.539 4.584 3.003 9.996-1.682 6.259-5.419-1.452-1.452-4.668-1.507-7.05-.12m-46.442 9.93c-2.78 1.119-5.704 5.515-4.96 7.455.409 1.066-.528 1.776-3.353 2.536-2.157.581-4.613 2.044-5.458 3.25-1.772 2.529-2.051 8.313-.45 9.303.598.369.852 1.571.565 2.669-.335 1.28.336 2.856 1.867 4.387 2.651 2.651 4.539 2.953 7.797 1.246 2.836-1.486 14.816-10.76 16.434-12.722 1.538-1.865 1.642-6.774.163-7.688-.598-.369-.846-1.594-.551-2.721.729-2.79-.844-5.406-4.342-7.215-3.275-1.693-4.546-1.776-7.712-.5m84.383 18.075C147.145 104.938 137.362 113 137.949 113c.894 0 27.52-20.176 29.051-22.014.275-.33 4.213-3.407 8.75-6.838 7.803-5.9 9.248-7.26 7.5-7.063-.412.046-11.014 8.146-23.559 18m-42.086 27.483c-4.245 1.556-6.605 3.183-6.605 4.554 0 1.405 2.455 1.026 7.141-1.1 5.324-2.416 11.473-2.56 16.88-.397 4.459 1.784 6.611 1.042 3.524-1.216-4.744-3.469-14.223-4.302-20.94-1.841m2.145 5.09c-2.062.856-3.75 1.931-3.75 2.39 0 1.712 1.88 1.896 4.646.453 3.367-1.756 8.658-1.944 11.527-.408 1.45.776 2.352.782 3.111.023.76-.76.013-1.512-2.575-2.593-4.546-1.9-8.143-1.862-12.959.135m3 4.031c-.963.252-1.75 1.12-1.75 1.93 0 1.117.784 1.327 3.25.873 1.787-.33 4.291-.673 5.563-.763 2.133-.151 2.176-.264.559-1.447-1.742-1.273-4.266-1.47-7.622-.593M112 147.393c0 1.421 2.88 3.06 3.786 2.155.638-.639-1.747-3.548-2.908-3.548-.483 0-.878.627-.878 1.393"/></svg>