<svg xmlns="http://www.w3.org/2000/svg" width="600" height="600" viewBox="0 0 600 600"><path fill-rule="evenodd" d="M312.45 1.39c-16.036 3.075-28.991 8.438-45.144 18.691-13.977 8.872-16.998 10.488-24.306 13.005-5.871 2.022-9.259 2.312-35 2.995-32.5.862-39.3 2.003-53.846 9.035-6.264 3.028-10.155 5.825-15.592 11.209-8.749 8.665-13.736 17.002-21.143 35.348-7.28 18.031-11.529 27.327-12.49 27.327-1.171 0-9.622-10.123-17.006-20.372-4.889-6.786-7.221-9.205-9.086-9.429-4.927-.59-5.337 1.271-5.337 24.207 0 11.602.302 22.444.671 24.094.664 2.966.561 3.053-9.098 7.678-15.8 7.566-25.066 18.605-30.911 36.822-5.665 17.661-5.427 32.833.951 60.5 3.119 13.527 4.171 20.236 4.236 27 .086 8.961.064 9.044-5.104 19-6.265 12.068-8.668 18.822-10.303 28.959-3.705 22.968 4.443 54.247 22.544 86.541 7.744 13.815 25.178 39.626 36.475 54 4.971 6.325 12.501 16.653 16.734 22.951 31.924 47.505 73.301 79.819 128.665 100.484 55.383 20.672 122.652 24.107 175.635 8.968 59.061-16.875 104.78-51.629 136.023-103.403 30.357-50.305 43.051-117.507 33.434-177-1.681-10.402-2.951-12.593-6.748-11.641-3.033.762-3.673 2.958-3.69 12.671-.017 9.014-2.28 28.021-5.093 42.765-7.591 39.782-23.451 76.736-44.622 103.963-6.248 8.037-23.183 25.691-23.928 24.946-.205-.204.301-4.834 1.123-10.288 2.963-19.659 1.44-50.907-3.618-74.254-2.424-11.188-7.838-27.162-12-35.408-2.635-5.22-3.27-5.843-5.672-5.566l-2.704.312-.624 20.5c-.465 15.257-1.172 23.057-2.766 30.5-12.429 58.055-51.392 97.747-104.156 106.104-12.644 2.002-38.699 1.485-52.454-1.042-27.458-5.044-50.303-17.172-69.078-36.672-31.828-33.056-42.597-82.056-27.472-124.995 7.046-20.005 18.19-36.035 34.53-49.674 21.261-17.746 44.012-26.011 68.879-25.021 15.439.615 17.842 1.842 33.684 17.19 14.579 14.125 23.087 21.142 35.069 28.921 27.508 17.86 60.173 26.679 88.015 23.764 41.47-4.342 72.118-28.699 83.18-66.106 3.501-11.84 3.761-13.212 4.646-24.469 2.52-32.069-7.521-67.633-27.617-97.82-7.564-11.362-24.851-29.322-39.336-40.867C481.746 110.437 463.551 98 462.015 98c-.422 0-3.529-4.678-6.906-10.395-17.813-30.157-43.047-55.936-69.523-71.025-22.724-12.949-52.53-19.14-73.136-15.19m-1.978 10.135c-12.754 2.803-27.146 9.511-42.329 19.729-4.046 2.723-10.121 6.237-13.5 7.81C242.98 44.492 238.58 45.163 209 46.03c-30.729.9-37.507 2.03-50.558 8.429-14.336 7.029-22.627 18.39-33.091 45.343-2.497 6.434-6.272 15.127-8.387 19.317l-3.847 7.619 3.016 2.881c2.927 2.797 3.057 2.825 4.433.952 3.433-4.675 10.566-20.043 14.421-31.071 9.127-26.108 18.582-36.28 38.688-41.623 6.523-1.733 12.483-2.218 35.825-2.913 15.4-.459 30.025-1.328 32.5-1.932 13.682-3.335 25.356-8.427 38.218-16.672 19.58-12.55 31.636-16.519 50.282-16.552 13.771-.024 25.534 2.52 39.368 8.515 23.364 10.125 48.151 29.676 65.419 51.601 3.888 4.937 7.908 8.959 9.711 9.717l3.077 1.294-1.788-3.036c-3.889-6.607-17.344-23.837-24.714-31.651C399.813 33.181 374.178 17.739 348 11.93c-10.057-2.232-28.316-2.429-37.528-.405M298.5 78.118c-11.332 1.208-35.243 5.987-46.891 9.372-37.525 10.903-71.437 29.877-96.414 53.944l-9.305 8.966 3.669 1.883 3.669 1.882 3.636-3.099c35.938-30.627 72.539-49.005 116.636-58.562 22.146-4.8 33.458-5.927 59.5-5.927 34.253 0 55.677 3.366 86.5 13.591 42.889 14.227 81.038 40.46 104.461 71.832 8.285 11.097 8.775 11.542 5.503 5-9.952-19.897-34.197-44.938-61.063-63.067-10.165-6.859-31.063-16.852-45.901-21.948-13.989-4.805-35.569-10.162-50.5-12.537-12.478-1.985-59.396-2.834-73.5-1.33M83.01 114.215c.021 8.72 2.146 28.584 4.094 38.285 4.168 20.747 12.51 40.761 23.967 57.5 9.227 13.48 29.368 32.877 30.96 29.816.376-.724 2.352-8.741 4.39-17.816 2.039-9.075 4.789-20.775 6.112-26s3.107-12.875 3.963-17 1.794-8.271 2.086-9.214c.419-1.354-1.734-2.851-10.276-7.144-24.076-12.1-45.065-28.63-62.125-48.927L83 109.93zm-15.982 41.318c-9.03 4.865-14.454 10.541-19.081 19.967-9.25 18.844-9.984 34.997-2.979 65.636 6.737 29.468 6.432 35.17-2.853 53.223-7.289 14.172-9.513 22.764-9.483 36.641.055 24.94 10.753 52.753 35.122 91.308 4.104 6.495 7.625 11.647 7.822 11.449s-.778-3.711-2.168-7.808C64.413 399.449 60 370.43 60 337.783c0-45.309 8.849-84.501 28.243-125.081l5.16-10.797-1.951-3.66c-1.074-2.013-7.715-9.454-14.758-16.536-7.043-7.081-12.637-13.4-12.431-14.042.205-.642 2.818-2.616 5.805-4.387 2.988-1.772 5.955-3.572 6.594-4 1.762-1.183.479-7.285-1.525-7.257-.901.012-4.55 1.592-8.109 3.51m370.552 23.583c-3.354 2.638-3.152 6.39.49 9.096 2.187 1.625 2.965 1.729 5.231.697 4.746-2.163 4.852-8.607.176-10.738-3.219-1.466-2.733-1.544-5.897.945M97.728 217.569C82.135 248.456 71.921 288.477 70.564 324c-.408 10.699-.343 11.491.455 5.5 5.392-40.47 15.551-75.813 30.101-104.721 3.384-6.724 3.37-6.583.967-9.71l-1.869-2.432z"/></svg>