<svg xmlns="http://www.w3.org/2000/svg" width="192" height="192" viewBox="0 0 192 192"><path fill-opacity=".4" fill-rule="evenodd" d="M61.961 9.365c-.297.301-3.222.777-6.5 1.058-14.158 1.214-23.666 4.985-31.289 12.41-6.241 6.078-9.516 11.824-12.35 21.667-2.253 7.825-2.304 8.998-2.313 53.5-.008 40.433.188 46.212 1.757 51.895 4.411 15.967 14.327 26.109 30.234 30.923 7.583 2.295 90.613 2.959 102.988.824 19.155-3.306 31.366-13.972 36.225-31.642 1.596-5.805 1.787-11.416 1.787-52.5 0-32.827-.356-47.688-1.243-51.894-1.839-8.725-5.525-15.952-11.192-21.944-8.141-8.607-15.861-11.941-30.565-13.198-8.98-.767-76.916-1.731-77.539-1.099"/><path fill-opacity=".052" fill-rule="evenodd" d="M110.33 38.75c3.227 5.14 5.265 9.339 3.475 7.163-.718-.872-2.205-2.065-3.305-2.65-2.259-1.202-95.16-1.622-95.894-.434-1.54 2.491-2.599 20.685-3.156 54.187-.924 55.573.08 61.575 12.212 73.049 5.93 5.608 13.552 9.522 21.544 11.062 2.912.561 21.81 1.261 41.995 1.555 41.571.606 55.853-.284 65.555-4.086 7.418-2.907 9.274-4.153 15.847-10.63 9.464-9.326 13.378-21.361 13.483-41.466.063-12.033-1.564-44.284-2.636-52.25l-.573-4.25h-15.094c-14.647 0-15.193-.076-18.444-2.555-1.843-1.406-3.868-2.236-4.499-1.846-.71.439-.876.269-.435-.444.392-.635.258-1.155-.298-1.155s-2.329-1.913-3.941-4.25-5.345-6.758-8.298-9.823C122.519 44.374 110.593 35 108.877 35c-.496 0 .158 1.688 1.453 3.75"/><path fill-opacity=".331" fill-rule="evenodd" d="M109 35.548c0 .354.842 1.838 1.872 3.298 3.051 4.327 6.839 12.357 9.31 19.74 1.916 5.723 2.31 8.981 2.288 18.914-.019 8.386-.47 12.972-1.499 15.226l-1.471 3.226-9.531-6.446c-12.347-8.35-30.458-22.847-43.279-34.644-5.744-5.285-9.346-8.055-8.27-6.362 3.821 6.016 15.649 21.567 23.56 30.976l8.109 9.645-7.794-5.237c-9.734-6.54-25.796-18.638-34.121-25.699-3.48-2.951-6.54-5.152-6.801-4.891-1.006 1.006 22.461 29.445 35.558 43.092 4.163 4.338 7.007 7.574 6.319 7.191-.838-.466-1.255.065-1.265 1.614-.028 4.119-.979 4.424-13.485 4.323-6.6-.054-12.398.097-12.883.336-1.799.882-8.631.616-8.993-.35-.239-.639-.8-.601-1.555.106-.795.745-2.547.82-5.375.231-5.697-1.188-6.014-1.281-7.444-2.174-.687-.43-1.25-.542-1.25-.25s-2.136-.605-4.746-1.993l-4.747-2.524 3.056 3.302c1.68 1.816 4.248 5.102 5.707 7.302s3.619 5.254 4.801 6.787c1.182 1.532 1.762 2.677 1.289 2.544s-2.372.562-4.22 1.546-3.07 1.319-2.716.746c.441-.714-.321-.706-2.411.022-2.131.743-3.437.748-4.317.017-.739-.613-1.837-.693-2.646-.193-.769.475-2.404.467-3.681-.019-1.422-.54-2.534-.492-2.916.126-1.066 1.725-.525 21.168.748 26.897 1.669 7.508 7.954 16.497 14.785 21.148 10.535 7.172 11.03 7.232 62.568 7.631 50.222.389 55.339-.019 66.051-5.26 6.868-3.36 14.622-11.165 17.831-17.948 3.07-6.489 4.865-18.608 3.958-26.716-.478-4.274-.978-5.541-2.027-5.139-.766.294-1.964.06-2.663-.52-.745-.618-1.844-.701-2.654-.2-.767.474-2.393.471-3.65-.007-1.54-.586-2.396-.477-2.671.338-.311.924-.75.914-1.908-.041-.828-.683-1.77-.977-2.094-.653-.954.954-6.248-2.618-9.295-6.272-2.761-3.311-2.823-3.66-2.89-16.109-.061-11.597-.342-13.495-3.166-21.419-4.186-11.743-11.21-22.766-20.313-31.875C119.085 41.948 109 34.038 109 35.548"/><path fill-opacity=".505" fill-rule="evenodd" d="M111.16 37.583c.241.504 2.498 5.192 5.016 10.417 5.156 10.698 6.534 15.57 7.562 26.74.64 6.942.782 7.339 1.347 3.76l.631-4 .125 4c.155 4.974-2.38 17.24-3.955 19.137-1.893 2.282-2.023.945-.253-2.603.903-1.81 1.779-5.371 1.947-7.912.167-2.542.095-3.497-.161-2.122-1.215 6.522-2.787 11-3.861 11-2.974 0-29.384-19.581-45.058-33.407C60.308 50.075 59.515 49.412 60.626 51c7.756 11.089 20.673 27.258 27.746 34.729 2.202 2.326 3.767 4.465 3.479 4.753-.92.921-27.757-18.439-45.351-32.716-4.72-3.83-4.738-3.857 8.314 12.35 12.142 15.076 29.212 33.147 39.066 41.355 3.93 3.273 6.994 6.419 6.809 6.99-.575 1.772-11.159 5.471-18.72 6.543-13.809 1.959-32.383-2.251-46.173-10.466-3.188-1.899-5.796-3.109-5.796-2.69 0 1.492 10.726 13.736 15.573 17.777 19.42 16.193 45.853 24.523 64.427 20.304 2.475-.562 8.941-3.09 14.369-5.618 14.589-6.795 22.651-6.192 29.343 2.195 1.534 1.922 3.126 3.494 3.538 3.494 1.427 0 .678-12.52-1.049-17.513-.953-2.757-3.062-7.257-4.686-10-2.906-4.908-2.953-5.223-3.022-19.987-.06-12.982-.371-15.807-2.312-21-5.23-13.995-11.919-24.206-22.302-34.043-6.373-6.037-13.547-11.607-12.719-9.874m2.84 3.358c0 .518.445 1.216.989 1.552.566.35.734-.051.393-.941-.665-1.732-1.382-2.049-1.382-.611M124.158 69c0 1.375.227 1.938.504 1.25.278-.687.278-1.812 0-2.5-.277-.687-.504-.125-.504 1.25m-88.932 47.579c.95.991 1.942 1.587 2.205 1.324s-.514-1.074-1.726-1.803c-2.107-1.265-2.128-1.243-.479.479m64.274 3.999c-5.578 3.332-13.533 5.493-23.5 6.384-8.073.721-8.195.766-2.434.899 3.337.076 8.726-.353 11.976-.953 6.692-1.237 18.458-6.238 18.458-7.845 0-.585-.112-1.021-.25-.969s-2.05 1.17-4.25 2.484m-41.687 5.105c.721.289 1.584.253 1.916-.079s-.258-.568-1.312-.525c-1.165.048-1.402.285-.604.604m4.456 1.01c.973.254 2.323.237 3-.037s-.119-.481-1.769-.461-2.204.244-1.231.498"/></svg>